<svg xmlns="http://www.w3.org/2000/svg" width="32" height="32" viewBox="0 0 32 32">
  <g id="Group_18596" data-name="Group 18596" transform="translate(-1011 -5452)">
    <rect id="Rectangle_62" data-name="Rectangle 62" width="32" height="32" rx="4" transform="translate(1011 5452)" fill="#fff"/>
    <g id="Group_7500" data-name="Group 7500" transform="translate(2463.897 4873.111)">
      <path id="Path_41667" data-name="Path 41667" d="M-1438.594,602.889c0-.047.008-.093.008-.14q0-3.431,0-6.863v-.153h-2.312v-2.849h2.312c0-.075,0-.136,0-.2.007-.834-.015-1.669.029-2.5a3.4,3.4,0,0,1,1.171-2.535,3.264,3.264,0,0,1,2.134-.764c.749-.007,1.5.055,2.247.088a.541.541,0,0,1,.1.022v2.536h-.184c-.547.009-1.1-.007-1.64.033a.925.925,0,0,0-.964.938c-.046.783-.011,1.57-.011,2.373h2.562l-.354,2.845h-2.22c0,.062-.011.112-.011.162q0,3.431,0,6.863c0,.046.009.093.013.139Z" transform="translate(0 0)"/>
    </g>
  </g>
</svg>
