<svg xmlns="http://www.w3.org/2000/svg" width="120" height="20" viewBox="0 0 120 20">
  <g id="Group_22" data-name="Group 22" transform="translate(-181 -4987)">
    <g id="star_black_24dp" transform="translate(231 4987)">
      <g id="Group_17" data-name="Group 17">
        <path id="Path_32" data-name="Path 32" d="M0,0H20V20H0Z" fill="none"/>
        <path id="Path_33" data-name="Path 33" d="M0,0H20V20H0Z" fill="none"/>
      </g>
      <g id="Group_18" data-name="Group 18" transform="translate(1.667 1.667)">
        <path id="Path_34" data-name="Path 34" d="M10.333,14.725l5.15,3.108-1.367-5.858,4.55-3.942-5.992-.508L10.333,2,7.992,7.525,2,8.033l4.55,3.942L5.183,17.833Z" transform="translate(-2 -2)" fill="#111"/>
      </g>
    </g>
    <g id="star_black_24dp-2" data-name="star_black_24dp" transform="translate(181 4987)">
      <g id="Group_17-2" data-name="Group 17">
        <path id="Path_32-2" data-name="Path 32" d="M0,0H20V20H0Z" fill="none"/>
        <path id="Path_33-2" data-name="Path 33" d="M0,0H20V20H0Z" fill="none"/>
      </g>
      <g id="Group_18-2" data-name="Group 18" transform="translate(1.667 1.667)">
        <path id="Path_34-2" data-name="Path 34" d="M10.333,14.725l5.15,3.108-1.367-5.858,4.55-3.942-5.992-.508L10.333,2,7.992,7.525,2,8.033l4.55,3.942L5.183,17.833Z" transform="translate(-2 -2)" fill="#111"/>
      </g>
    </g>
    <g id="star_black_24dp-3" data-name="star_black_24dp" transform="translate(256 4987)">
      <g id="Group_17-3" data-name="Group 17">
        <path id="Path_32-3" data-name="Path 32" d="M0,0H20V20H0Z" fill="none"/>
        <path id="Path_33-3" data-name="Path 33" d="M0,0H20V20H0Z" fill="none"/>
      </g>
      <g id="Group_18-3" data-name="Group 18" transform="translate(1.667 1.667)">
        <path id="Path_34-3" data-name="Path 34" d="M10.333,14.725l5.15,3.108-1.367-5.858,4.55-3.942-5.992-.508L10.333,2,7.992,7.525,2,8.033l4.55,3.942L5.183,17.833Z" transform="translate(-2 -2)" fill="#111"/>
      </g>
    </g>
    <g id="star_black_24dp-4" data-name="star_black_24dp" transform="translate(281 4987)">
      <g id="Group_17-4" data-name="Group 17">
        <path id="Path_32-4" data-name="Path 32" d="M0,0H20V20H0Z" fill="none"/>
        <path id="Path_33-4" data-name="Path 33" d="M0,0H20V20H0Z" fill="none"/>
      </g>
      <g id="Group_18-4" data-name="Group 18" transform="translate(1.667 1.667)">
        <path id="Path_34-4" data-name="Path 34" d="M10.333,14.725l5.15,3.108-1.367-5.858,4.55-3.942-5.992-.508L10.333,2,7.992,7.525,2,8.033l4.55,3.942L5.183,17.833Z" transform="translate(-2 -2)" fill="#111"/>
      </g>
    </g>
    <g id="star_black_24dp-5" data-name="star_black_24dp" transform="translate(206 4987)">
      <g id="Group_17-5" data-name="Group 17">
        <path id="Path_32-5" data-name="Path 32" d="M0,0H20V20H0Z" fill="none"/>
        <path id="Path_33-5" data-name="Path 33" d="M0,0H20V20H0Z" fill="none"/>
      </g>
      <g id="Group_18-5" data-name="Group 18" transform="translate(1.667 1.667)">
        <path id="Path_34-5" data-name="Path 34" d="M10.333,14.725l5.15,3.108-1.367-5.858,4.55-3.942-5.992-.508L10.333,2,7.992,7.525,2,8.033l4.55,3.942L5.183,17.833Z" transform="translate(-2 -2)" fill="#111"/>
      </g>
    </g>
  </g>
</svg>
