<svg xmlns="http://www.w3.org/2000/svg" width="160" height="49.953" viewBox="0 0 160 49.953">
  <g id="Group_23" data-name="Group 23" transform="translate(-193.403 -8.644)">
    <g id="Group_1" data-name="Group 1" transform="translate(193.403 43.256)">
      <path id="Path_1" data-name="Path 1" d="M193.4,37.782V23.249h3.776l6.979,8.887V23.249h3.757V37.782h-3.757L197.179,28.9v8.885Z" transform="translate(-193.403 -22.846)" fill="#fff"/>
      <path id="Path_2" data-name="Path 2" d="M204.5,23.249V37.782h-3.778V23.249Z" transform="translate(-183.17 -22.846)" fill="#fff"/>
      <path id="Path_3" data-name="Path 3" d="M211.935,27.2a4.686,4.686,0,0,0-1.235-.741,3.275,3.275,0,0,0-1.194-.242,1.935,1.935,0,0,0-1.2.348,1.082,1.082,0,0,0-.463.906.9.9,0,0,0,.233.635,1.979,1.979,0,0,0,.607.434,5.062,5.062,0,0,0,.849.316c.314.091.626.187.935.29a5.847,5.847,0,0,1,2.707,1.647,4.064,4.064,0,0,1,.858,2.69,5.21,5.21,0,0,1-.376,2.023,4.192,4.192,0,0,1-1.1,1.551,5.053,5.053,0,0,1-1.774,1,7.393,7.393,0,0,1-2.381.357,8.763,8.763,0,0,1-5.107-1.637l1.618-3.047a6.579,6.579,0,0,0,1.678,1.12,4.014,4.014,0,0,0,1.637.364,1.957,1.957,0,0,0,1.379-.422,1.291,1.291,0,0,0,.453-.964,1.324,1.324,0,0,0-.115-.571,1.242,1.242,0,0,0-.386-.441,2.991,2.991,0,0,0-.7-.376q-.431-.173-1.05-.386c-.489-.153-.966-.324-1.436-.511a4.5,4.5,0,0,1-1.251-.743,3.421,3.421,0,0,1-.887-1.165,4.109,4.109,0,0,1-.338-1.784,5.16,5.16,0,0,1,.357-1.956,4.363,4.363,0,0,1,1-1.5,4.477,4.477,0,0,1,1.58-.973,6,6,0,0,1,2.091-.345,9.153,9.153,0,0,1,2.256.3,9.956,9.956,0,0,1,2.256.877Z" transform="translate(-179.574 -23.081)" fill="#fff"/>
      <path id="Path_4" data-name="Path 4" d="M218.366,35.258h-5.4l-.865,2.525h-4.03l5.533-14.533h4.124l5.531,14.533h-4.028Zm-1-2.872-1.695-4.838-1.7,4.838Z" transform="translate(-172.901 -22.846)" fill="#fff"/>
      <path id="Path_5" data-name="Path 5" d="M227.184,37.782h-4.7l-3.606-5.588v5.588H215.1V23.249h5.878a5.779,5.779,0,0,1,2.119.357,3.994,3.994,0,0,1,2.381,2.4,4.973,4.973,0,0,1,.3,1.736,4.262,4.262,0,0,1-.8,2.688,4.034,4.034,0,0,1-2.361,1.4Zm-8.307-8.036h.714a2.759,2.759,0,0,0,1.714-.463,1.777,1.777,0,0,0,0-2.661,2.759,2.759,0,0,0-1.714-.463h-.714Z" transform="translate(-163.082 -22.846)" fill="#fff"/>
      <path id="Path_6" data-name="Path 6" d="M228.176,29.885h7.5a20.719,20.719,0,0,1-.1,2.1,7.375,7.375,0,0,1-.386,1.753,6.955,6.955,0,0,1-1.1,2.016,6.529,6.529,0,0,1-1.628,1.465,7.673,7.673,0,0,1-2.055.894,8.781,8.781,0,0,1-2.35.309,8.289,8.289,0,0,1-3.1-.559,7.034,7.034,0,0,1-2.4-1.57,7.173,7.173,0,0,1-1.561-2.429,9.082,9.082,0,0,1-.01-6.245,6.856,6.856,0,0,1,1.561-2.419A7.1,7.1,0,0,1,225,23.64a8.63,8.63,0,0,1,3.181-.559,7.869,7.869,0,0,1,3.989.983,6.782,6.782,0,0,1,2.716,3.045L231.3,28.593a3.656,3.656,0,0,0-1.3-1.717,3.285,3.285,0,0,0-1.822-.52,3.671,3.671,0,0,0-1.542.319,3.327,3.327,0,0,0-1.187.906,4.277,4.277,0,0,0-.77,1.417,6.219,6.219,0,0,0-.038,3.565,3.835,3.835,0,0,0,.722,1.369,3.272,3.272,0,0,0,1.194.9,4.064,4.064,0,0,0,1.659.316,4.581,4.581,0,0,0,1.079-.125,2.832,2.832,0,0,0,.935-.405,2.29,2.29,0,0,0,.683-.722,2.923,2.923,0,0,0,.367-1.079h-3.1Z" transform="translate(-155.611 -23.081)" fill="#fff"/>
      <path id="Path_7" data-name="Path 7" d="M237.283,35.258h-5.4l-.868,2.525h-4.028l5.531-14.533h4.126l5.531,14.533h-4.028Zm-1-2.872-1.7-4.838-1.695,4.838Z" transform="translate(-146.466 -22.846)" fill="#fff"/>
      <path id="Path_8" data-name="Path 8" d="M234.331,37.342V23.564h1.637v5.3h7.322v-5.3h1.666V37.342H243.29V30.425h-7.322v6.917Z" transform="translate(-136.209 -22.406)" fill="#fff"/>
      <path id="Path_9" data-name="Path 9" d="M239.879,37.342V23.564h7.264v1.5h-5.627v3.953h5.627v1.525h-5.627v5.279h5.627v1.525Z" transform="translate(-128.456 -22.406)" fill="#fff"/>
      <path id="Path_10" data-name="Path 10" d="M244.067,37.342V23.564h3.239a9.555,9.555,0,0,1,2.028.156,2.966,2.966,0,0,1,1.134.532,3.13,3.13,0,0,1,.949,1.285,4.548,4.548,0,0,1,.338,1.784,3.342,3.342,0,0,1-.945,2.572,3.925,3.925,0,0,1-2.771.88h-.292l5.262,6.569h-2.081L245.9,30.773h-.235v6.569Zm1.6-12.395V29.56h1.251a4.589,4.589,0,0,0,2.568-.494,2.044,2.044,0,0,0,.65-1.729,2.255,2.255,0,0,0-.666-1.858,4.333,4.333,0,0,0-2.551-.532Z" transform="translate(-122.603 -22.406)" fill="#fff"/>
      <path id="Path_11" data-name="Path 11" d="M248.37,37.342V23.564h2.87a11.633,11.633,0,0,1,2.234.156,3.22,3.22,0,0,1,1.237.532,3.254,3.254,0,0,1,1.021,1.256,3.873,3.873,0,0,1,.362,1.681,3.071,3.071,0,0,1-.52,1.824,2.743,2.743,0,0,1-1.52,1.026,2.915,2.915,0,0,1,1.932,1.1,3.6,3.6,0,0,1,.712,2.292,4.222,4.222,0,0,1-.3,1.582,3.8,3.8,0,0,1-.837,1.287,3.23,3.23,0,0,1-1.441.81,12.266,12.266,0,0,1-2.879.235Zm1.6-12.356V29.6h1.271a4.433,4.433,0,0,0,2.465-.508,1.96,1.96,0,0,0,.717-1.714,2.262,2.262,0,0,0-.664-1.858,4.244,4.244,0,0,0-2.517-.532Zm0,5.9v5.027h1.271a11.893,11.893,0,0,0,1.887-.105,2.191,2.191,0,0,0,.928-.357,2.051,2.051,0,0,0,.666-.837,2.824,2.824,0,0,0,.245-1.187,2.772,2.772,0,0,0-.29-1.307,2.085,2.085,0,0,0-.849-.868,2.287,2.287,0,0,0-.762-.28,7.538,7.538,0,0,0-1.345-.086h-1.75Z" transform="translate(-116.59 -22.406)" fill="#fff"/>
      <path id="Path_12" data-name="Path 12" d="M258.43,29.883a4.656,4.656,0,0,1,2.028,1.525,3.749,3.749,0,0,1,.683,2.249,4.052,4.052,0,0,1-1.211,3.064,4.954,4.954,0,0,1-5.934.328,4.113,4.113,0,0,1-1.486-2.366L254,33.949a3.724,3.724,0,0,0,.993,1.9,2.454,2.454,0,0,0,1.738.643,2.806,2.806,0,0,0,1.995-.71,2.41,2.41,0,0,0,.762-1.848,2.536,2.536,0,0,0-.532-1.606,4.039,4.039,0,0,0-1.6-1.151l-1.676-.717a4.755,4.755,0,0,1-2.047-1.477,3.521,3.521,0,0,1-.671-2.165,3.092,3.092,0,0,1,1.091-2.429,4.06,4.06,0,0,1,2.786-.959,4.206,4.206,0,0,1,2.15.527,3.584,3.584,0,0,1,1.417,1.551l-1.357.868a3.551,3.551,0,0,0-1.033-1.192,2.255,2.255,0,0,0-1.3-.391,2.088,2.088,0,0,0-1.51.566,2.03,2.03,0,0,0-.137,2.709,3.78,3.78,0,0,0,1.4.952Z" transform="translate(-110.803 -22.597)" fill="#fff"/>
    </g>
    <g id="Group_3" data-name="Group 3" transform="translate(304.826 32.16)">
      <g id="Group_2" data-name="Group 2" transform="translate(0 0)">
        <path id="Path_13" data-name="Path 13" d="M243.454,19.846a3.078,3.078,0,0,0-.906-.163,1.288,1.288,0,0,0-.693.163.519.519,0,0,0-.254.456.607.607,0,0,0,.177.444,1.407,1.407,0,0,0,.446.29,6.96,6.96,0,0,0,.734.252,8,8,0,0,1,1.062.381,1.939,1.939,0,0,1,.707.566,1.556,1.556,0,0,1,.29.983,1.674,1.674,0,0,1-.314,1.017,1.987,1.987,0,0,1-.865.662,3.3,3.3,0,0,1-1.261.228,3.976,3.976,0,0,1-1.458-.278,4.18,4.18,0,0,1-1.239-.743l.511-1.038a3.685,3.685,0,0,0,1.084.7,2.882,2.882,0,0,0,1.12.257,1.416,1.416,0,0,0,.8-.2.645.645,0,0,0,.113-.983,1.279,1.279,0,0,0-.451-.288c-.182-.074-.432-.156-.746-.247a9.075,9.075,0,0,1-1.057-.372,1.86,1.86,0,0,1-.7-.551,1.525,1.525,0,0,1-.29-.971,1.629,1.629,0,0,1,.295-.971,1.918,1.918,0,0,1,.839-.643,3.22,3.22,0,0,1,1.251-.228,4.285,4.285,0,0,1,1.225.182,4.175,4.175,0,0,1,1.081.491l-.494,1.067A4.533,4.533,0,0,0,243.454,19.846Z" transform="translate(-239.879 -18.288)" fill="#fff"/>
        <path id="Path_14" data-name="Path 14" d="M246.213,19.534a2.235,2.235,0,0,1,.9.87,2.532,2.532,0,0,1,.324,1.29,2.571,2.571,0,0,1-.324,1.3,2.231,2.231,0,0,1-.9.875,2.794,2.794,0,0,1-1.335.309,2.829,2.829,0,0,1-1.347-.309,2.213,2.213,0,0,1-.906-.875,2.571,2.571,0,0,1-.324-1.3,2.532,2.532,0,0,1,.324-1.29,2.217,2.217,0,0,1,.906-.87,2.829,2.829,0,0,1,1.347-.309A2.794,2.794,0,0,1,246.213,19.534Zm-2.338,1.112a1.672,1.672,0,0,0,0,2.131,1.31,1.31,0,0,0,1,.41,1.291,1.291,0,0,0,.985-.41,1.68,1.68,0,0,0,0-2.131,1.291,1.291,0,0,0-.985-.41A1.31,1.31,0,0,0,243.875,20.647Z" transform="translate(-236.496 -17.374)" fill="#fff"/>
        <path id="Path_15" data-name="Path 15" d="M249.127,19.727a1.907,1.907,0,0,1,.484,1.371v3.042h-1.194v-2.7a1.1,1.1,0,0,0-.292-.806,1.065,1.065,0,0,0-.794-.3,1.205,1.205,0,0,0-.933.4,1.469,1.469,0,0,0-.343,1v2.4h-1.184V19.267h1.184v.911a1.849,1.849,0,0,1,1.75-.957A1.736,1.736,0,0,1,249.127,19.727Z" transform="translate(-232.902 -17.38)" fill="#fff"/>
        <path id="Path_16" data-name="Path 16" d="M250.516,24.141v-.592a1.605,1.605,0,0,1-.655.484,2.453,2.453,0,0,1-.921.163,1.955,1.955,0,0,1-.9-.2,1.417,1.417,0,0,1-.595-.542,1.45,1.45,0,0,1-.211-.774,1.288,1.288,0,0,1,.484-1.069,2.171,2.171,0,0,1,1.366-.4h1.419v-.127a.821.821,0,0,0-.28-.664,1.248,1.248,0,0,0-.82-.237,2.816,2.816,0,0,0-1.45.456l-.427-.82a5.235,5.235,0,0,1,1.043-.46,3.84,3.84,0,0,1,1.1-.141,2.173,2.173,0,0,1,1.472.456,1.636,1.636,0,0,1,.532,1.275l.01,3.189Zm-.42-1.1a.829.829,0,0,0,.41-.6v-.436h-1.23a1.34,1.34,0,0,0-.7.141.5.5,0,0,0-.223.46.6.6,0,0,0,.23.491,1,1,0,0,0,.635.182A1.528,1.528,0,0,0,250.1,23.043Z" transform="translate(-229.598 -17.38)" fill="#fff"/>
        <path id="Path_17" data-name="Path 17" d="M251.5,19.48a2,2,0,0,1,.988-.259v1.148a1.6,1.6,0,0,0-1.206.35,1.348,1.348,0,0,0-.451,1.072v2.349h-1.184V19.267h1.184V20.2A1.764,1.764,0,0,1,251.5,19.48Z" transform="translate(-226.23 -17.38)" fill="#fff"/>
        <path id="Path_18" data-name="Path 18" d="M254.449,25.214l-1.321-2.131-.748.784v1.347H251.2V18.453h1.184v3.92l2-2.023h1.366l-1.8,1.877,1.913,2.987Z" transform="translate(-224.064 -18.453)" fill="#fff"/>
        <path id="Path_19" data-name="Path 19" d="M254.445,18.628a.61.61,0,0,1,.18.463.721.721,0,0,1-.041.247,2.678,2.678,0,0,1-.125.264l-.573,1.1h-.592l.381-1.084a.6.6,0,0,1-.273-.53.62.62,0,0,1,.175-.458.619.619,0,0,1,.868,0Z" transform="translate(-221.132 -18.453)" fill="#fff"/>
        <path id="Path_20" data-name="Path 20" d="M256.8,20.265a2.335,2.335,0,0,0-.7-.117.908.908,0,0,0-.477.105.347.347,0,0,0-.18.321.382.382,0,0,0,.225.352,3.631,3.631,0,0,0,.7.259,7.082,7.082,0,0,1,.839.3,1.568,1.568,0,0,1,.568.448,1.192,1.192,0,0,1,.242.779,1.258,1.258,0,0,1-.547,1.093,2.348,2.348,0,0,1-1.376.381,3.527,3.527,0,0,1-1.1-.177,2.6,2.6,0,0,1-.911-.506l.41-.83a2.4,2.4,0,0,0,.784.444,2.642,2.642,0,0,0,.865.158,1.067,1.067,0,0,0,.525-.113.372.372,0,0,0,.194-.343.406.406,0,0,0-.228-.381,3.891,3.891,0,0,0-.738-.283,6.639,6.639,0,0,1-.8-.288,1.437,1.437,0,0,1-.537-.429,1.158,1.158,0,0,1-.228-.75,1.273,1.273,0,0,1,.523-1.1,2.2,2.2,0,0,1,1.316-.379,3.4,3.4,0,0,1,.954.137,2.911,2.911,0,0,1,.832.384l-.427.856A3.565,3.565,0,0,0,256.8,20.265Z" transform="translate(-220.029 -17.385)" fill="#fff"/>
      </g>
    </g>
    <g id="Group_5" data-name="Group 5" transform="translate(345.844 38.974)">
      <g id="Group_4" data-name="Group 4" transform="translate(0 0)">
        <path id="Path_21" data-name="Path 21" d="M262.677,21.8a3.785,3.785,0,0,1,1.87,3.277,3.725,3.725,0,0,1-.5,1.892,3.8,3.8,0,0,1-1.374,1.4,3.792,3.792,0,0,1-3.821.007,3.807,3.807,0,0,1-1.357-5.164,3.8,3.8,0,0,1,1.367-1.4,3.662,3.662,0,0,1,1.915-.518A3.7,3.7,0,0,1,262.677,21.8Zm-.357,5.934a3.067,3.067,0,0,0,1.522-2.656,2.96,2.96,0,0,0-.408-1.525,3.061,3.061,0,0,0-1.11-1.11,3.121,3.121,0,0,0-3.109,0A3.113,3.113,0,0,0,258.1,23.57a3.048,3.048,0,0,0,2.652,4.579A3.063,3.063,0,0,0,262.32,27.735Zm-.134-2.594a1.215,1.215,0,0,1-.554.463l.827,1.227h-.8L261,25.737h-.961v1.093h-.7V23.124h1.53a1.7,1.7,0,0,1,1.122.331,1.153,1.153,0,0,1,.4.942A1.368,1.368,0,0,1,262.186,25.14Zm-2.15,0h.827a.922.922,0,0,0,.626-.194.686.686,0,0,0,.223-.542.629.629,0,0,0-.223-.525.972.972,0,0,0-.626-.18h-.827Z" transform="translate(-256.988 -21.295)" fill="#fff"/>
      </g>
    </g>
    <g id="Group_7" data-name="Group 7" transform="translate(244.96 8.644)">
      <g id="Group_6" data-name="Group 6">
        <path id="Path_22" data-name="Path 22" d="M236.9,27.394a18.846,18.846,0,0,0,7.629-12.74,19.65,19.65,0,0,0-4.627-.216l-.007.036c-.014.094-.036.185-.053.278-.05.269-.1.537-.163.8-.029.132-.062.264-.093.393-.055.225-.11.451-.173.674-.038.141-.081.283-.125.424-.062.209-.127.42-.194.628-.048.144-.1.288-.146.429-.072.206-.149.41-.225.614-.055.139-.108.28-.165.42-.084.206-.173.412-.264.616-.058.132-.115.264-.175.4-.1.221-.213.441-.324.659-.055.11-.108.221-.165.328-.17.328-.348.65-.537.971s-.393.645-.6.961c-.048.074-.1.146-.146.221q-.309.464-.64.911l-.072.091c-.2.273-.417.542-.633.806-.055.065-.108.129-.163.194q-.352.421-.726.827l-.125.129q-.334.356-.683.7l-.168.163c-.261.252-.532.5-.806.738-.055.048-.113.094-.168.141-.247.211-.5.415-.75.614-.05.041-.1.084-.156.125q-.432.334-.882.647l-.2.139c-.273.187-.551.369-.834.544l-.122.079c-.312.192-.631.376-.952.554l-.23.122c-.1.053-.189.108-.288.158A19.421,19.421,0,0,0,236.9,27.394Z" transform="translate(-196.973 -0.617)" fill="#fff"/>
        <path id="Path_23" data-name="Path 23" d="M225.548,23.139c-.022-.235-.041-.472-.055-.712-.01-.129-.019-.261-.026-.391-.017-.364-.029-.729-.029-1.1,0-.314.01-.628.022-.94,0-.1.012-.2.017-.307.012-.209.024-.42.041-.628.01-.12.024-.242.036-.362.019-.192.038-.381.062-.573.014-.125.034-.249.05-.374.026-.187.055-.374.086-.559q.029-.187.065-.374c.034-.187.072-.374.11-.563.026-.117.05-.237.077-.355.046-.2.1-.4.149-.6.024-.1.048-.2.077-.3.074-.276.156-.551.24-.825l.022-.077,0,0a20.945,20.945,0,0,0-7.82-3.7A20.069,20.069,0,0,0,220.6,26.3c.17.29.35.573.535.853.05.079.105.158.158.235.146.218.295.429.448.64.048.065.1.132.146.2q.295.4.611.777l.129.149c.175.206.352.41.537.609.065.072.129.141.194.211.2.209.4.415.607.616l.094.1c.237.228.482.448.731.666l.2.168c.2.165.4.331.6.489.069.055.137.11.206.163.264.2.527.4.8.585l.086.06c.245.168.494.328.746.487l.24.146c.233.141.465.276.7.408.058.034.115.067.175.1q.435.237.885.453c.067.031.137.062.206.1.137.065.278.125.42.185a22.832,22.832,0,0,1-4.462-11.148C225.574,23.41,225.562,23.276,225.548,23.139Z" transform="translate(-210.815 -6.194)" fill="#fff"/>
        <path id="Path_24" data-name="Path 24" d="M227.136,34.508c.07-.034.139-.065.209-.1q.45-.216.885-.453c.058-.031.117-.067.177-.1.235-.132.467-.266.7-.405.081-.05.161-.1.24-.149.252-.156.5-.319.746-.487l.089-.06c.271-.187.537-.384.8-.585.07-.053.139-.11.209-.163.2-.161.4-.324.595-.489.067-.055.134-.113.2-.168.249-.218.491-.439.729-.666l.1-.1c.206-.2.405-.405.6-.614.067-.07.132-.139.2-.211.182-.2.362-.4.537-.609.041-.05.086-.1.127-.149.211-.254.415-.513.614-.777.05-.067.1-.132.144-.2.153-.209.3-.422.451-.64.053-.077.106-.156.158-.235.185-.28.362-.563.532-.853a19.992,19.992,0,0,0,2.618-7.705,20.227,20.227,0,0,0-.686-8.2,20.955,20.955,0,0,0-7.823,3.7l0,0,.026.094c.084.269.163.537.235.806.029.1.053.209.079.312.05.2.1.4.146.6.029.117.053.237.077.357.041.187.077.374.113.561l.065.374c.031.185.06.372.084.556.019.127.036.252.053.376.022.192.043.384.062.573.012.12.024.24.034.362.017.209.029.42.041.631.007.1.014.2.019.3.012.312.019.626.019.94,0,.364-.012.729-.029,1.093-.007.132-.017.261-.024.391-.017.237-.034.475-.058.71-.012.137-.026.271-.041.405a22.857,22.857,0,0,1-4.462,11.155C226.858,34.633,227,34.573,227.136,34.508Z" transform="translate(-198.403 -6.194)" fill="#fff"/>
        <path id="Path_25" data-name="Path 25" d="M228.572,37.473a18.8,18.8,0,0,0,6.195-11.059l.029-.216c.036-.237.067-.475.093-.714.022-.216.038-.432.053-.65.01-.125.024-.249.029-.376.019-.355.031-.71.031-1.067a19.974,19.974,0,0,0-1.208-6.849,20.381,20.381,0,0,0-5.222-7.9,20.417,20.417,0,0,0-5.222,7.895,20,20,0,0,0-1.206,6.852c0,.357.01.712.029,1.067.007.127.019.249.029.374.014.218.031.436.055.652.024.24.058.477.091.714.01.072.019.144.031.216A18.811,18.811,0,0,0,228.572,37.473Z" transform="translate(-204.796 -8.644)" fill="#fff"/>
        <path id="Path_26" data-name="Path 26" d="M230.22,30.132l-.115-.072c-.285-.177-.566-.362-.844-.551-.065-.046-.132-.089-.2-.134-.3-.211-.595-.427-.885-.652-.05-.038-.1-.079-.151-.12q-.385-.3-.755-.619c-.055-.046-.11-.091-.165-.139q-.413-.36-.808-.738l-.165-.163c-.233-.228-.463-.46-.686-.7-.041-.043-.084-.084-.122-.127-.249-.269-.491-.547-.729-.827-.053-.065-.108-.129-.161-.194-.216-.264-.429-.532-.635-.806l-.07-.091q-.331-.446-.64-.911c-.05-.074-.1-.149-.146-.221-.206-.316-.41-.635-.6-.961s-.364-.645-.537-.971c-.055-.108-.105-.216-.161-.324-.113-.221-.223-.444-.326-.666-.06-.129-.117-.259-.175-.391-.091-.206-.18-.412-.264-.621-.057-.137-.11-.276-.165-.415-.077-.206-.153-.412-.225-.619-.05-.141-.1-.283-.146-.424-.07-.211-.134-.422-.2-.633-.041-.141-.084-.28-.122-.422-.062-.223-.117-.451-.173-.676-.031-.129-.065-.259-.1-.388-.06-.269-.113-.539-.163-.813-.017-.089-.036-.177-.053-.266l-.007-.038a19.656,19.656,0,0,0-4.627.216,18.84,18.84,0,0,0,7.631,12.74,19.412,19.412,0,0,0,9.153,3.575c-.1-.053-.2-.108-.293-.161-.074-.038-.149-.079-.223-.12Q230.692,30.422,230.22,30.132Z" transform="translate(-214.908 -0.617)" fill="#fff"/>
      </g>
    </g>
  </g>
</svg>
