<svg xmlns="http://www.w3.org/2000/svg" width="96" height="16" viewBox="0 0 96 16">
  <g id="Group_21" data-name="Group 21" transform="translate(-181 -4987)">
    <g id="star_black_24dp" transform="translate(221 4987)">
      <g id="Group_17" data-name="Group 17">
        <path id="Path_32" data-name="Path 32" d="M0,0H16V16H0Z" fill="none"/>
        <path id="Path_33" data-name="Path 33" d="M0,0H16V16H0Z" fill="none"/>
      </g>
      <g id="Group_18" data-name="Group 18" transform="translate(1.333 1.333)">
        <path id="Path_34" data-name="Path 34" d="M8.667,12.18l4.12,2.487L11.693,9.98l3.64-3.153L10.54,6.42,8.667,2,6.793,6.42,2,6.827,5.64,9.98,4.547,14.667Z" transform="translate(-2 -2)" fill="#111"/>
      </g>
    </g>
    <g id="star_black_24dp-2" data-name="star_black_24dp" transform="translate(181 4987)">
      <g id="Group_17-2" data-name="Group 17">
        <path id="Path_32-2" data-name="Path 32" d="M0,0H16V16H0Z" fill="none"/>
        <path id="Path_33-2" data-name="Path 33" d="M0,0H16V16H0Z" fill="none"/>
      </g>
      <g id="Group_18-2" data-name="Group 18" transform="translate(1.333 1.333)">
        <path id="Path_34-2" data-name="Path 34" d="M8.667,12.18l4.12,2.487L11.693,9.98l3.64-3.153L10.54,6.42,8.667,2,6.793,6.42,2,6.827,5.64,9.98,4.547,14.667Z" transform="translate(-2 -2)" fill="#111"/>
      </g>
    </g>
    <g id="star_black_24dp-3" data-name="star_black_24dp" transform="translate(241 4987)">
      <g id="Group_17-3" data-name="Group 17">
        <path id="Path_32-3" data-name="Path 32" d="M0,0H16V16H0Z" fill="none"/>
        <path id="Path_33-3" data-name="Path 33" d="M0,0H16V16H0Z" fill="none"/>
      </g>
      <g id="Group_18-3" data-name="Group 18" transform="translate(1.333 1.333)">
        <path id="Path_34-3" data-name="Path 34" d="M8.667,12.18l4.12,2.487L11.693,9.98l3.64-3.153L10.54,6.42,8.667,2,6.793,6.42,2,6.827,5.64,9.98,4.547,14.667Z" transform="translate(-2 -2)" fill="#111"/>
      </g>
    </g>
    <g id="star_black_24dp-4" data-name="star_black_24dp" transform="translate(261 4987)">
      <g id="Group_17-4" data-name="Group 17">
        <path id="Path_32-4" data-name="Path 32" d="M0,0H16V16H0Z" fill="none"/>
        <path id="Path_33-4" data-name="Path 33" d="M0,0H16V16H0Z" fill="none"/>
      </g>
      <g id="Group_18-4" data-name="Group 18" transform="translate(1.333 1.333)">
        <path id="Path_34-4" data-name="Path 34" d="M8.667,12.18l4.12,2.487L11.693,9.98l3.64-3.153L10.54,6.42,8.667,2,6.793,6.42,2,6.827,5.64,9.98,4.547,14.667Z" transform="translate(-2 -2)" fill="#111"/>
      </g>
    </g>
    <g id="star_black_24dp-5" data-name="star_black_24dp" transform="translate(201 4987)">
      <g id="Group_17-5" data-name="Group 17">
        <path id="Path_32-5" data-name="Path 32" d="M0,0H16V16H0Z" fill="none"/>
        <path id="Path_33-5" data-name="Path 33" d="M0,0H16V16H0Z" fill="none"/>
      </g>
      <g id="Group_18-5" data-name="Group 18" transform="translate(1.333 1.333)">
        <path id="Path_34-5" data-name="Path 34" d="M8.667,12.18l4.12,2.487L11.693,9.98l3.64-3.153L10.54,6.42,8.667,2,6.793,6.42,2,6.827,5.64,9.98,4.547,14.667Z" transform="translate(-2 -2)" fill="#111"/>
      </g>
    </g>
  </g>
</svg>
