<svg xmlns="http://www.w3.org/2000/svg" width="36.001" height="36" viewBox="0 0 36.001 36">
  <g id="Group_18901" data-name="Group 18901" transform="translate(-618.028 -2638.644)">
    <g id="Group_18850" data-name="Group 18850" transform="translate(618.028 2638.644)">
      <path id="Path_66603" data-name="Path 66603" d="M633.031,286.079c-8.716-.607-11.141-5.343-11.255-5.571a2.146,2.146,0,0,0-3.865,0c-.114.19-2.5,4.964-11.254,5.571a1.166,1.166,0,0,0-1.1,1.175v4.661h.076c.379-.037.758-.037,1.137-.037s.759,0,1.137.037h.038v-3.561c7.958-.872,11.141-5.154,11.937-6.443.8,1.289,3.941,5.571,11.9,6.443v8.3c0,8.072-9.435,14.514-11.9,16.068a35.409,35.409,0,0,1-4.662-3.448l-.113.114c-.265.3-.493.569-.758.834s-.531.492-.834.758a35.363,35.363,0,0,0,5.761,4.169,1.116,1.116,0,0,0,.606.152.992.992,0,0,0,.569-.152c.568-.3,13.718-7.845,13.718-18.493v-9.36a1.266,1.266,0,0,0-1.137-1.212" transform="translate(-598.167 -279.296)" fill="#fff"/>
      <path id="Path_66604" data-name="Path 66604" d="M617.314,308.52a.132.132,0,0,0-.076.038c0,.038.038.076.038.114a2.789,2.789,0,0,1,.152.531,33.146,33.146,0,0,0,3.524,2.88l.569.379.568-.379c2.767-1.971,9.209-7.162,9.209-13.111v-6.443l-.758-.151a18.13,18.13,0,0,1-8.375-4.093l-.644-.569-.645.531a18.129,18.129,0,0,1-8.375,4.093l-.757.152v2.956a2.4,2.4,0,0,1,.3.53c0,.039.038.039.038.076.038,0,.076-.037.114-.037a2.623,2.623,0,0,1,1.061-.19,3.132,3.132,0,0,1,1.933.72c.3.265.569.493.833.758s.531.569.758.833a2.972,2.972,0,0,1,.531,2.994.129.129,0,0,1-.038.075.117.117,0,0,0,.076.039,2.989,2.989,0,0,1,1.743,2.5c.038.379.038.758.038,1.137s0,.758-.038,1.137a2.979,2.979,0,0,1-1.781,2.5" transform="translate(-599.843 -281.577)" fill="#fff"/>
      <path id="Path_66605" data-name="Path 66605" d="M610.807,312.658a.688.688,0,0,0-.607-.455l-.948-.114a.786.786,0,0,1-.454-.19l-.265-.265a.752.752,0,0,1-.152-.948,5.419,5.419,0,0,0,.53-1.288.744.744,0,0,1,.758-.569h.379a.7.7,0,0,1,.455.19l.72.607a.7.7,0,0,0,.758.114.756.756,0,0,0,.454-.645,8.228,8.228,0,0,0,.038-.985,8.557,8.557,0,0,0-.038-.986.807.807,0,0,0-.454-.644.7.7,0,0,0-.758.114l-.758.606a.473.473,0,0,1-.417.152h-.379a.735.735,0,0,1-.758-.569,5.444,5.444,0,0,0-.53-1.288.759.759,0,0,1,.152-.947l.265-.265a.625.625,0,0,1,.454-.19l.948-.114a.836.836,0,0,0,.607-.454.768.768,0,0,0-.114-.758,6.018,6.018,0,0,0-.682-.72c-.227-.227-.493-.454-.72-.682a.7.7,0,0,0-.758-.114.688.688,0,0,0-.455.607l-.113.947a.789.789,0,0,1-.19.454l-.265.3a.752.752,0,0,1-.948.152,5.446,5.446,0,0,0-1.288-.53.774.774,0,0,1-.569-.758v-.379a.926.926,0,0,1,.152-.454l.607-.72a.7.7,0,0,0,.113-.758.757.757,0,0,0-.644-.454,17.09,17.09,0,0,0-1.971,0,.812.812,0,0,0-.644.454.7.7,0,0,0,.115.758l.606.758a.66.66,0,0,1,.152.454v.379a.774.774,0,0,1-.569.758,5.432,5.432,0,0,0-1.288.53.758.758,0,0,1-.947-.152l-.265-.265a.625.625,0,0,1-.19-.454l-.114-.947a.756.756,0,0,0-.454-.607.768.768,0,0,0-.758.114c-.227.227-.493.417-.72.682-.227.227-.455.493-.644.72a.7.7,0,0,0-.114.757.754.754,0,0,0,.607.455l.948.114a.788.788,0,0,1,.454.19l.265.265a.751.751,0,0,1,.152.947,5.414,5.414,0,0,0-.53,1.288.744.744,0,0,1-.758.569h-.379a.931.931,0,0,1-.455-.152l-.758-.682a.7.7,0,0,0-.758-.114.759.759,0,0,0-.455.644,12.826,12.826,0,0,0,0,1.971.754.754,0,0,0,.455.607.7.7,0,0,0,.758-.114l.758-.607a1.606,1.606,0,0,1,.455-.114h.379a.744.744,0,0,1,.758.569,5.4,5.4,0,0,0,.53,1.288.759.759,0,0,1-.152.947l-.265.227a.625.625,0,0,1-.454.19l-.948.114a.754.754,0,0,0-.607.455.768.768,0,0,0,.114.758c.227.227.416.492.682.72.228.227.493.455.72.682a.7.7,0,0,0,.758.114.753.753,0,0,0,.455-.607l.114-.947a.788.788,0,0,1,.19-.455l.265-.265a.751.751,0,0,1,.947-.152,5.433,5.433,0,0,0,1.288.531.774.774,0,0,1,.569.758v.378a.929.929,0,0,1-.152.455l-.607.72a.7.7,0,0,0-.114.758.758.758,0,0,0,.645.455,8.233,8.233,0,0,0,.986.038,8.551,8.551,0,0,0,.985-.038.811.811,0,0,0,.644-.455.7.7,0,0,0-.114-.758l-.607-.757a.661.661,0,0,1-.151-.455v-.379a.773.773,0,0,1,.568-.757,5.432,5.432,0,0,0,1.288-.531.759.759,0,0,1,.947.152l.266.265a.63.63,0,0,1,.189.455l.115.947a.751.751,0,0,0,.454.607.766.766,0,0,0,.758-.114c.227-.227.492-.417.72-.682.227-.227.455-.493.682-.72a.775.775,0,0,0,.076-.72" transform="translate(-595.421 -284.806)" fill="#fff"/>
    </g>
  </g>
</svg>
