<svg xmlns="http://www.w3.org/2000/svg" width="22.419" height="29" viewBox="0 0 22.419 29">
  <g id="Group_18902" data-name="Group 18902" transform="translate(54)">
    <path id="Path_66601" data-name="Path 66601" d="M186.8,277.683v.008a9,9,0,0,0-9.32,9.061,10.13,10.13,0,0,0,1.893,5.907,14.251,14.251,0,0,1,2.169,7.815v6.209h9.4v-5.165a1.076,1.076,0,0,1,1.036-1.036H195.4a5.94,5.94,0,0,0,1.538-.15c.287-.085.329-.147.364-.194a5.124,5.124,0,0,0,.146-1.647v-3.374c-.01-.84-.013-1.3-.009-1.586a2.22,2.22,0,0,1,.028-.4.9.9,0,0,1,.158-.425,1.368,1.368,0,0,1,.89-.489H199.9c-.359-.639-.771-1.434-1.06-1.995a9,9,0,0,1-.765-4.365,6.807,6.807,0,0,0-3.6-6.416,15.8,15.8,0,0,0-7.674-1.764m.316,2.075v0a14.175,14.175,0,0,1,6.027,1.129,5.37,5.37,0,0,1,2.359,1.986,4.427,4.427,0,0,1,.453,3.333,3.13,3.13,0,0,1-2.209,2.415,7.337,7.337,0,0,1-2.815-.109,8.059,8.059,0,0,0-2.456-.109,2.581,2.581,0,0,0-1.844,1.246,4.831,4.831,0,0,1-2.164,1.857A3.1,3.1,0,0,1,182,291.42c-1.487-.726-2.341-2.436-2.492-4.522a6.208,6.208,0,0,1,2.257-5.247,8.468,8.468,0,0,1,5.356-1.893m.016,2.075a6.553,6.553,0,0,0-4.04,1.408,3.99,3.99,0,0,0-1.521,3.511,3.419,3.419,0,0,0,1.335,2.812.9.9,0,0,0,.809.02,2.864,2.864,0,0,0,1.21-1.1,4.893,4.893,0,0,1,3.188-2.108,9.438,9.438,0,0,1,3.127.1,7.294,7.294,0,0,0,2.046.134c.367-.083.47-.081.652-.866a2.184,2.184,0,0,0-.2-1.784,3.4,3.4,0,0,0-1.48-1.2,12.892,12.892,0,0,0-5.122-.923" transform="translate(-231.483 -277.683)" fill="#fff"/>
  </g>
</svg>
