<svg xmlns="http://www.w3.org/2000/svg" width="36.333" height="36" viewBox="0 0 36.333 36">
  <path id="Path_66624" data-name="Path 66624" d="M1482.25,307.081l-1.216,3.563-2.8-7.144a12.029,12.029,0,0,0-11.111-21.339c-.127.066-.252.134-.376.2a12.031,12.031,0,1,0-7.443,22.4v3.785h-4.224v3.036h4.224V316.8h3.035V311.59h4.225v-3.036h-4.224v-3.785a11.971,11.971,0,0,0,5.542-2.2l.023-.017c.074-.054.146-.108.219-.163a13.3,13.3,0,0,0,1.331-1.157l-.018-.008a12.008,12.008,0,0,0,1.88-14.27,5.412,5.412,0,0,0-2.673,1.442A7.547,7.547,0,1,1,1473,301.82a17.173,17.173,0,0,1-2.782,2.791,12.1,12.1,0,0,0,5.174-.056l2.985,7.623-3.84-1.312-.981,2.873,8.623,2.946,2.946-8.623Zm-21.606-14.248a11.987,11.987,0,0,0,3.419,8.391,9,9,0,1,1,0-16.783,11.993,11.993,0,0,0-3.418,8.392" transform="translate(-1448.791 -280.798)" fill="#fff"/>
</svg>
