<svg xmlns="http://www.w3.org/2000/svg" width="41.652" height="36" viewBox="0 0 41.652 36">
  <path id="Path_66625" data-name="Path 66625" d="M397.933,698.936h-6.082l5.561-7.958,4.408,10.543h4.331l4.407-10.543,5.559,7.958h-6.081l-1.9,2.585h16.677c-.979-10.1-6.248-4.726-13.768-10.309,3.646-1.195,6.749-3.264,5.8-6.178a46.934,46.934,0,0,0-2.629-5.917,14.725,14.725,0,0,0,.133-1.979c0-6.416-3.947-11.617-10.362-11.617s-10.362,5.2-10.362,11.617a14.95,14.95,0,0,0,.12,1.891,44.342,44.342,0,0,0-2.629,6.005c-.907,2.913,2.184,4.981,5.814,6.177-7.521,5.585-12.791.211-13.769,10.31h16.676Z" transform="translate(-383.159 -665.521)" fill="#fff"/>
</svg>
