<svg xmlns="http://www.w3.org/2000/svg" width="36.271" height="32.278" viewBox="0 0 36.271 32.278">
  <g id="Group_18903" data-name="Group 18903" transform="translate(-812.363 -667.293)">
    <path id="Path_66609" data-name="Path 66609" d="M840.319,689.2a.8.8,0,0,0,.331-.074c.373-.166,9.22-4.129,9.22-11.475a10.263,10.263,0,0,0-19.1,0c0,7.346,8.838,11.309,9.22,11.475a.751.751,0,0,0,.331.074" transform="translate(-5.203 -4.564)" fill="#fff"/>
    <path id="Path_66610" data-name="Path 66610" d="M833.452,703.268l7.951-3.49a1.871,1.871,0,0,0-1.211-3.526l-6.827,1.741a3.375,3.375,0,0,1-.522,1.791,2.1,2.1,0,0,1-1.944,1.35h-.079a20.1,20.1,0,0,1-9.837-2.568.725.725,0,1,1,.726-1.255,18.2,18.2,0,0,0,7.791,2.321,2.118,2.118,0,0,0,2.285-1.726,1.387,1.387,0,0,0-.072-.733.326.326,0,0,0-.175-.152,60.043,60.043,0,0,1-12.346-6.485c-1.835-1.589-5.731-.131-7.6.566l-.268.1a6.266,6.266,0,0,1-3-.022.729.729,0,0,0-.573.094.745.745,0,0,0-.319.486l-1.161,6.783a.721.721,0,0,0,.726.848c1.436-.022,5.513.116,6.986.994.146.087.334.2.552.341,2,1.263,6.4,4.027,11.984,4.027a17.1,17.1,0,0,0,6.942-1.487" transform="translate(6.111 -5.184)" fill="#fff"/>
  </g>
</svg>
