<svg xmlns="http://www.w3.org/2000/svg" width="34.186" height="28.999" viewBox="0 0 34.186 28.999">
  <g id="Group_18941" data-name="Group 18941" transform="translate(9174.052 14525.778)">
    <path id="Path_66644" data-name="Path 66644" d="M67.35,28.844a4.733,4.733,0,0,0-6.69,5.988l-5.146,7.643h7.633l2.375-4.823a4.739,4.739,0,0,0,1.828-8.808" transform="translate(-9209.581 -14554)" fill="#fff"/>
    <path id="Path_66645" data-name="Path 66645" d="M59.644,50.54H28.536a.587.587,0,0,0-.587.587v1.76a.588.588,0,0,0,.434.587l2.5.663v1.174a9.925,9.925,0,0,0,7.56,9.608l-.517,2.524a.587.587,0,0,0,.587.7H52.6a.587.587,0,0,0,.6-.575.6.6,0,0,0-.012-.13l-.505-2.524a9.926,9.926,0,0,0,7.549-9.62V51.127a.587.587,0,0,0-.587-.587" transform="translate(-9202 -14564.928)" fill="#fff"/>
    <path id="Path_66646" data-name="Path 66646" d="M50.446,28.223h-.035l-.112.023-.117.024-.117.025-.118.027-.118.028-.122.03-.118.029-.117.031-.107.029-.109.031-.118.035-.12.036-.114.034-.118.038h0l-.121.039-.119.041-.115.039-.12.044h0l-.129.047-.12.046-.12.047L47.814,29l-.124.051-.105.046-.806.385-.117.062-.136.075L46.4,29.7l-.134.079-.133.079L46,29.931l-.133.086-.129.085-.129.088-.13.091-.129.094-.125.094-.126.1-.125.1-.063.051-.065.054-.057.047-.062.054-.062.054-.062.057-.062.055-.057.052-.061.059-.061.058-.057.055-.06.059-.054.054-.054.057-.011.011-.055.056-.054.059-.059.065-.054.059-.053.06-.057.067v0l-.023.028.052.082.057.088.008.012.057.089c.011.017.021.034.03.051l.006.009.007.009c.01.018.019.036.028.054l.048.093.007.012.048.093h0l.046.092c0,.009.009.017.014.026l.044.093h0l.044.092.006.014.043.092.012.027.042.094v0l.041.091.007.014.038.093.041.093.013.03.036.093.037.093c0,.009.009.019.012.029l.036.094.034.092.006.015.034.094v.005l.033.091.009.026.032.094v0l.03.093.005.017.03.091,0,.015.029.094.028.092.006.018.027.092.005.018.025.091,0,.012.025.094,0,.009.024.091,0,.015.023.091.024.092c0,.012.006.024.008.036l.022.091.02.091v.006l.02.091,0,.016.02.092,0,.02.017.091.017.091,0,.021.017.091,0,.015.016.092V35.9l.014.091,0,.015.028.182c0,.008,0,.016,0,.024l.026.181,0,.03.022.181,0,.012.019.18c0,.009,0,.017,0,.026l.017.178v.022l.013.178,0,.02.011.178v.02l.008.176v.022l.005.175V37.8l0,.175a.1.1,0,0,1,0,.021v.355c0,.01,0,.021,0,.031l-.005.17v.009l-.006.168c0,.02,0,.041,0,.062l-.074.952c0,.02,0,.04-.007.06l-.017.15,0,.012-.02.149v.014l-.021.147,0,.02-.023.145v.005l-.022.144,0,.014-.025.144,0,.014-.025.141,0,.02-.027.138v.007l-.021.1.1-.039.126-.049.122-.05.125-.052.1-.044.806-.386.117-.062.133-.071.132-.075.134-.078.133-.079.13-.08.128-.083.133-.087.129-.088.125-.088.131-.1.13-.1.122-.095.13-.1.062-.051.062-.053.057-.046.062-.055.062-.054.057-.051L48.737,39l.067-.062h0l.055-.051.055-.052v0l.062-.059.059-.059.061-.061.056-.058.053-.056.059-.065.061-.065.052-.059.057-.066.056-.062.053-.062.057-.067.057-.07.052-.065.052-.065.051-.066.05-.068.055-.075.054-.073.051-.07.044-.065.054-.078.05-.072.046-.075.053-.08.028-.044.023-.044L50.368,37l.04-.08.038-.08.038-.078.036-.079.038-.084.036-.08.034-.078.036-.084.03-.077.032-.079.033-.085.029-.077.028-.078.029-.085h0l.027-.077.025-.075.029-.09v0l.023-.075.023-.073L51,35.4l.022-.076.022-.084.022-.082.019-.075L51.1,35l.021-.082.018-.085h0l.015-.071.014-.071,0-.021.015-.07.013-.07v-.007l.017-.09.012-.07.012-.072v0l.025-.163.02-.154.02-.162.016-.155.014-.156.012-.159.011-.156.006-.152,0-.152,0-.152v-.31l0-.147,0-.131-.07-.9-.011-.085-.013-.1-.014-.106-.014-.105-.018-.112-.015-.1-.018-.1v-.009l-.017-.1-.02-.1-.02-.106-.019-.1-.02-.094-.02-.1-.021-.1-.022-.094-.022-.093-.023-.1h0l-.022-.088-.022-.082-.023-.086L50.9,29.21l0-.012-.022-.083-.02-.07-.023-.078,0-.01-.025-.083L50.78,28.8l-.024-.079-.025-.076-.023-.07-.023-.072-.027-.078-.022-.066v-.009h0l0-.005,0-.008.005.007-.009-.014h0v0l0,0v0h0l-.009-.014,0,0h0l-.005-.006,0,0-.014-.014,0,0-.005,0-.013-.01-.007-.005-.005,0-.006,0-.007,0-.014-.007-.006,0-.009,0-.014,0h-.007l-.006,0h-.033Z" transform="translate(-9206.351 -14554)" fill="#fff"/>
    <path id="Path_66647" data-name="Path 66647" d="M31.417,29.189H31.4l-.007,0h0l-.017.007h-.007l-.005,0-.015.005-.007,0-.007,0,0,0-.007,0-.013.01,0,0-.007.006-.01.01-.005.005,0,.005-.006.007h0l0,0h0v0l-.007.012h0V29.3l0,.006-.007.013h0v.005l-.035.1-.038.114-.036.115-.037.116-.034.115-.036.12-.033.117-.032.117-.029.107-.028.111-.029.119-.03.123-.025.117-.027.121h0l-.027.123-.025.123-.024.12-.021.126h0l-.023.136-.022.127-.019.128-.018.133-.018.133-.012.114-.07.89,0,.133,0,.156v.305l0,.154.005.151.007.157.009.156.012.154.014.16.017.158.018.155.022.158.023.159.014.079.014.083.014.072.014.08v0l.016.081.017.08.017.081.017.075.02.082.02.082.02.077.022.082.02.073.022.075,0,.015.021.076.024.077.025.084.025.076.025.076.03.083h0l.029.082.028.078.03.078.033.084.03.078.032.077.036.086.033.078.033.076.036.079.04.085.036.078.039.078h0l.043.086.037.07.022.044.036.057.047.075.049.075h0l.048.073.049.07h0l.052.078.051.07.05.07.051.068.051.067.056.071.052.067.053.065.057.07.058.069.051.061.052.06,0,0,.059.066.052.059.059.065.053.057.057.058.066.067.06.062.054.055.055.054.062.059.061.059.056.051.062.054.065.058.061.054.062.054.057.048.061.051,0,0,.062.051.125.1.126.1.126.095.128.093.128.09.129.087.13.086.13.082.13.081.136.082.128.075.131.072.133.073.112.059.812.389.076.033.1.042.1.042.1.04.1.038.1.036.1.037h0l.1.037.088.031.1.034h0l.1.033.091.029.1.031,0,0,.086.028.087.025.012,0,.086.026.085.023.012,0,.088.026.086.025h0l.09.025.079.021.084.021.086.022.078.019.086.02.088.021.074.017.073.015.012,0,.071.015.069.014.08.016.067.013h0l.017,0h.054l.007,0,.014,0,.009,0,0,0,.015-.006.006,0,.007,0,.007,0,.005,0,.014-.009,0,0,0,0,.015-.014,0,0,0,0,0,0,0-.007,0,0,.006-.008h0v0l0,0h0l0-.005.006-.013h0l0-.012.037-.108.038-.114.037-.113.034-.112.035-.115.033-.117.033-.116.034-.123.028-.107.027-.109.03-.12.028-.118.028-.12.027-.123.025-.12.025-.126.023-.125.022-.124.022-.129.021-.133.021-.134.018-.129.017-.135.015-.113.068-.891,0-.133,0-.149v-.307l0-.153,0-.154-.006-.153-.01-.159-.012-.155-.013-.154-.018-.161-.017-.159-.021-.154-.025-.162-.013-.08-.014-.08-.013-.073-.016-.08h0l-.015-.081-.017-.074-.017-.08-.02-.089h0L39.689,36l-.019-.074h0l-.022-.083-.021-.08-.022-.083-.022-.076-.022-.074-.026-.084-.027-.085-.023-.076-.028-.083-.026-.078-.027-.076-.03-.083-.032-.085-.03-.078-.031-.078-.031-.078-.034-.077-.036-.086-.037-.083-.036-.078-.033-.073-.041-.084-.038-.08-.041-.078-.042-.085-.025-.048-.026-.042-.052-.08-.049-.075-.049-.073-.05-.072-.05-.07-.054-.076-.051-.07-.051-.069-.055-.072-.051-.067-.053-.066-.057-.072-.051-.063-.053-.064-.059-.067-.054-.062-.053-.059-.062-.069,0,0-.053-.059-.053-.055-.06-.065-.056-.057-.059-.06-.062-.061-.055-.054-.062-.059-.061-.057L37.32,32h0l-.054-.05-.054-.046-.014-.015-.054-.049-.055-.046-.005-.005-.067-.059-.054-.046-.058-.046,0,0-.128-.1-.124-.095-.13-.1-.127-.093-.127-.089-.132-.089L36,30.978l-.128-.083-.128-.08-.131-.078-.136-.08-.132-.074-.129-.07-.116-.062-.811-.387-.078-.035-.1-.04-.1-.041-.1-.039-.105-.041-.093-.036-.091-.033-.009,0-.1-.035-.094-.034-.1-.035-.093-.033-.091-.029L33.05,29.6l-.094-.029-.093-.029-.09-.027-.095-.028h0l-.088-.026-.083-.022-.086-.024-.089-.022-.012,0-.082-.022-.071-.018-.079-.017-.012,0-.083-.02-.078-.018-.08-.019-.078-.017-.072-.015-.074-.015-.08-.016-.069-.014-.012,0H31.42Z" transform="translate(-9202.702 -14554.266)" fill="#fff"/>
  </g>
</svg>
