<svg xmlns="http://www.w3.org/2000/svg" width="22.909" height="36" viewBox="0 0 22.909 36">
  <path id="Path_66626" data-name="Path 66626" d="M1050.684,278.662h3.273v2.118a19.282,19.282,0,0,1-10.586,17.275v0l-.14.07a15.991,15.991,0,0,0-8.643,11.625h12.6v3.273h-12.87v1.637h-3.273v-2.119a19.281,19.281,0,0,1,10.585-17.275l0,0,.14-.069a16,16,0,0,0,8.643-11.625h-12.6V280.3h12.87Zm-11.456,13.7-2.277,2.352a19.491,19.491,0,0,1-5.9-13.932v-2.118h3.273v2.118a16.123,16.123,0,0,0,1.2,6.064h10.129v3.273h-8.334a15.927,15.927,0,0,0,1.91,2.243m6.549,8.6,2.276-2.352a19.494,19.494,0,0,1,5.9,13.932v2.119h-3.273v-2.119a16.145,16.145,0,0,0-1.2-6.063h-10.131v-3.273h8.334a15.879,15.879,0,0,0-1.91-2.245" transform="translate(-1031.047 -278.662)" fill="#fff"/>
</svg>
