<svg xmlns="http://www.w3.org/2000/svg" width="32" height="32" viewBox="0 0 32 32">
  <g id="Group_18595" data-name="Group 18595" transform="translate(-955 -5452)">
    <rect id="Rectangle_61" data-name="Rectangle 61" width="32" height="32" rx="4" transform="translate(955 5452)" fill="#fff"/>
    <g id="Group_7645" data-name="Group 7645" transform="translate(6416.2 4165.574)">
      <path id="Path_54243" data-name="Path 54243" d="M-5449.326,1294.426h8.247c.041.009.08.022.121.028a4.146,4.146,0,0,1,3.526,2.847,7.623,7.623,0,0,1,.227,1v8.247a1.331,1.331,0,0,0-.029.136,4.207,4.207,0,0,1-4.1,3.733q-3.873.023-7.746-.006a4.069,4.069,0,0,1-1.208-.208,4.18,4.18,0,0,1-2.912-4.027q-.005-3.748,0-7.5c0-.161.01-.323.026-.483a4.206,4.206,0,0,1,2.964-3.583C-5449.92,1294.53-5449.62,1294.487-5449.326,1294.426Zm9.31,8.006q0-1.163,0-2.327a2.809,2.809,0,0,0-2.866-2.866q-2.32,0-4.638,0a2.81,2.81,0,0,0-2.867,2.865q0,2.319,0,4.638a2.811,2.811,0,0,0,2.865,2.867q2.32,0,4.639,0a2.81,2.81,0,0,0,2.867-2.866Q-5440.014,1303.587-5440.016,1302.432Z" transform="translate(0)"/>
      <path id="Path_54244" data-name="Path 54244" d="M-5324.93,1418.417q0,1.163,0,2.326a1.875,1.875,0,0,1-1.926,1.922q-2.327,0-4.653,0a1.875,1.875,0,0,1-1.918-1.914q0-2.334,0-4.668a1.875,1.875,0,0,1,1.918-1.914q2.334,0,4.668,0a1.874,1.874,0,0,1,1.91,1.906C-5324.929,1416.855-5324.93,1417.636-5324.93,1418.417Zm-4.257,2.343a2.348,2.348,0,0,0,2.352-2.334,2.347,2.347,0,0,0-2.334-2.351,2.347,2.347,0,0,0-2.352,2.334A2.348,2.348,0,0,0-5329.187,1420.76Zm2.689-4.561a.474.474,0,0,0,.474-.458.474.474,0,0,0-.454-.478.473.473,0,0,0-.482.466A.473.473,0,0,0-5326.5,1416.2Z" transform="translate(-116.023 -115.993)"/>
      <path id="Path_54245" data-name="Path 54245" d="M-5239.757,1506.438a1.408,1.408,0,0,1-1.418,1.4,1.409,1.409,0,0,1-1.393-1.41,1.407,1.407,0,0,1,1.418-1.4A1.408,1.408,0,0,1-5239.757,1506.438Z" transform="translate(-204.039 -204.01)"/>
    </g>
  </g>
</svg>
