<svg xmlns="http://www.w3.org/2000/svg" width="32" height="32" viewBox="0 0 32 32">
  <g id="Group_18597" data-name="Group 18597" transform="translate(-1067 -5452)">
    <rect id="Rectangle_63" data-name="Rectangle 63" width="32" height="32" rx="4" transform="translate(1067 5452)" fill="#fff"/>
    <g id="Group_7499" data-name="Group 7499" transform="translate(3122.804 5242.479)">
      <path id="Path_41666" data-name="Path 41666" d="M-2048.8,230.945a7.208,7.208,0,0,0,5.176-1.464,3.576,3.576,0,0,1-2.579-1.216,3.1,3.1,0,0,1-.689-1.236,3.832,3.832,0,0,0,1.522-.07,3.557,3.557,0,0,1-2.772-3.482c.25.094.492.206.745.276a4.183,4.183,0,0,0,.775.118,3.61,3.61,0,0,1-1.475-2.5,3.371,3.371,0,0,1,.458-2.193,10.077,10.077,0,0,0,7.282,3.684,4.256,4.256,0,0,1-.036-1.362,3.547,3.547,0,0,1,2.524-2.847,3.508,3.508,0,0,1,3.451.887.281.281,0,0,0,.216.058,6.7,6.7,0,0,0,1.945-.725c.043-.024.088-.044.164-.082a3.648,3.648,0,0,1-1.452,1.905,6.573,6.573,0,0,0,1.889-.5l.037.043c-.284.333-.555.68-.858.994-.24.249-.525.455-.78.691a.34.34,0,0,0-.107.219,10.157,10.157,0,0,1-4.4,8.7,9.1,9.1,0,0,1-4.206,1.586,10.385,10.385,0,0,1-4.265-.3,9.774,9.774,0,0,1-2.492-1.116A.851.851,0,0,1-2048.8,230.945Z"/>
    </g>
  </g>
</svg>
