<svg id="whatsapp_black_24dp" xmlns="http://www.w3.org/2000/svg" width="24" height="24" viewBox="0 0 24 24">
  <g id="Group_12" data-name="Group 12">
    <rect id="Rectangle_18" data-name="Rectangle 18" width="24" height="24" fill="none"/>
  </g>
  <g id="Group_15" data-name="Group 15">
    <g id="Group_14" data-name="Group 14">
      <g id="Group_13" data-name="Group 13">
        <path id="Path_31" data-name="Path 31" d="M19.05,4.91A9.816,9.816,0,0,0,12.04,2,9.917,9.917,0,0,0,3.45,16.86L2.05,22,7.3,20.62a9.913,9.913,0,0,0,4.74,1.21h0A9.914,9.914,0,0,0,19.05,4.91ZM12.04,20.15h0A8.262,8.262,0,0,1,7.84,19l-.3-.18-3.12.82.83-3.04-.2-.31A8.241,8.241,0,0,1,12.03,3.67a8.24,8.24,0,0,1,.01,16.48Zm4.52-6.16c-.25-.12-1.47-.72-1.69-.81s-.39-.12-.56.12-.64.81-.78.97-.29.19-.54.06A6.663,6.663,0,0,1,11,13.1a7.566,7.566,0,0,1-1.38-1.72c-.14-.25-.02-.38.11-.51.11-.11.25-.29.37-.43a1.733,1.733,0,0,0,.25-.41.459.459,0,0,0-.02-.43c-.06-.12-.56-1.34-.76-1.84-.2-.48-.41-.42-.56-.43H8.53a.9.9,0,0,0-.66.31,2.821,2.821,0,0,0-.86,2.07,4.817,4.817,0,0,0,1.01,2.56,10.978,10.978,0,0,0,4.23,3.74,12.1,12.1,0,0,0,1.41.52,3.426,3.426,0,0,0,1.56.1,2.518,2.518,0,0,0,1.67-1.18,1.954,1.954,0,0,0,.14-1.18C16.96,14.16,16.81,14.11,16.56,13.99Z" fill="#111"/>
      </g>
    </g>
  </g>
</svg>
