<svg xmlns="http://www.w3.org/2000/svg" width="32" height="32" viewBox="0 0 32 32">
  <g id="Group_18598" data-name="Group 18598" transform="translate(-1123 -5452)">
    <rect id="Rectangle_64" data-name="Rectangle 64" width="32" height="32" rx="4" transform="translate(1123 5452)" fill="#fff"/>
    <g id="Group_18594" data-name="Group 18594" transform="translate(3624.145 4959.936)">
      <path id="Path_65946" data-name="Path 65946" d="M-2485.185,502.064c1.642.064,3.285.122,4.927.2a8.816,8.816,0,0,1,1.157.138,2.025,2.025,0,0,1,1.7,1.771,19.216,19.216,0,0,1,.244,4.049c-.032.947-.123,1.894-.215,2.838a2.117,2.117,0,0,1-.958,1.673,2.687,2.687,0,0,1-1.219.355,45.223,45.223,0,0,1-4.976.206c-1.671-.009-3.343-.059-5.014-.113a14.385,14.385,0,0,1-1.606-.164,2.009,2.009,0,0,1-1.725-1.7,16.95,16.95,0,0,1-.26-2.849,24.1,24.1,0,0,1,.162-3.758,6.828,6.828,0,0,1,.154-.834,2.044,2.044,0,0,1,1.807-1.516,43.621,43.621,0,0,1,4.707-.239c.372-.006.744,0,1.117,0Zm-1.545,3.246v4.785l4.155-2.392Z" transform="translate(0 0)"/>
    </g>
  </g>
</svg>
