<?xml version="1.0" encoding="utf-8"?>
<!-- Generator: Adobe Illustrator 25.1.0, SVG Export Plug-In . SVG Version: 6.00 Build 0)  -->
<svg version="1.1" id="Layer_1" xmlns="http://www.w3.org/2000/svg" xmlns:xlink="http://www.w3.org/1999/xlink" x="0px" y="0px"
	 viewBox="0 0 456 57.1" style="enable-background:new 0 0 456 57.1;" xml:space="preserve">
<style type="text/css">
	.st0{fill:#00205B;}
</style>
<g>
	<g>
		<g>
			<path class="st0" d="M115.5,0.3c2.7,0,4.8,0.6,6.3,1.8c1.5,1.2,2.2,2.8,2.2,5c0,1.3-0.4,2.4-1.1,3.3c-0.7,0.9-1.8,1.7-3.2,2.3
				c1.7,0.5,3,1.4,3.9,2.5c0.9,1.1,1.3,2.6,1.3,4.2c0,2.2-0.8,4-2.3,5.3c-1.6,1.3-3.6,2-6.2,2h-13.6V26c0.5-0.1,0.9-0.3,1-0.5
				c0.2-0.2,0.2-0.5,0.2-1V2.5c0-0.5-0.1-0.9-0.2-1.1c-0.2-0.2-0.5-0.3-1-0.5V0.3H115.5z M109.1,10.7h5.9c1.2,0,2.2-0.3,2.9-0.9
				c0.7-0.6,1.1-1.4,1.1-2.4c0-0.9-0.4-1.7-1.1-2.2c-0.7-0.5-1.7-0.8-2.9-0.8h-6V10.7z M109.1,22.6h6.2c1.5,0,2.6-0.3,3.4-1
				c0.8-0.7,1.2-1.6,1.2-2.9c0-1.2-0.4-2.2-1.3-2.9c-0.8-0.7-2-1-3.5-1h-6V22.6z"/>
			<path class="st0" d="M367.4,22.4c-1.3,1.6-2.9,2.8-4.6,3.6c-1.7,0.8-3.7,1.2-5.9,1.2c-3.9,0-7-1.3-9.4-3.8
				c-2.4-2.5-3.6-5.9-3.6-10c0-3.8,1.2-6.9,3.7-9.5c2.5-2.5,5.6-3.8,9.3-3.8c2,0,3.9,0.5,5.8,1.4c1.9,0.9,2.9,1.4,3,1.4
				c0.1,0,0.3,0,0.5-0.1c0.2-0.1,0.4-0.2,0.6-0.4l0.5,0.3L363,8.6l-0.5-0.3c0.1-0.2,0.2-0.4,0.3-0.5c0.1-0.2,0.1-0.3,0.1-0.4
				c0-0.7-0.6-1.5-1.9-2.2c-1.2-0.7-2.6-1.1-4-1.1c-2.4,0-4.3,0.8-5.8,2.5c-1.5,1.7-2.2,3.9-2.2,6.6c0,2.9,0.8,5.2,2.3,6.9
				c1.5,1.7,3.5,2.6,5.9,2.6c0.9,0,1.7-0.1,2.4-0.4c0.8-0.3,1.5-0.7,2.3-1.3V17h-4c-0.6,0-0.9,0.1-1.1,0.3c-0.2,0.2-0.3,0.5-0.4,1
				h-0.6v-6.5h0.6c0.1,0.4,0.2,0.7,0.5,0.9c0.2,0.2,0.6,0.3,1.1,0.3H368v0.8c-0.5,0.1-0.9,0.3-1.1,0.5c-0.2,0.2-0.3,0.6-0.3,1.1v6.4
				L367.4,22.4z"/>
			<path class="st0" d="M129.6,6.5c0-0.5-0.1-0.8-0.2-0.9c-0.1-0.1-0.4-0.3-0.8-0.3V4.7h10.1c2.4,0,4.3,0.6,5.6,1.7
				c1.3,1.1,2,2.7,2,4.8c0,1.4-0.4,2.6-1.2,3.5c-0.8,1-1.9,1.7-3.4,2.2l4,7.9c0.1,0.3,0.3,0.6,0.6,0.8c0.2,0.2,0.5,0.4,0.9,0.5v0.6
				h-6.6v-0.6c0,0,0.1,0,0.1,0c0.5-0.1,0.8-0.3,0.8-0.4c0,0,0-0.1-0.1-0.3c0-0.2-0.1-0.3-0.2-0.5l-3.7-7.5h-3.7v7.5
				c0,0.4,0.1,0.7,0.2,0.9c0.1,0.2,0.4,0.3,0.9,0.4v0.6h-6.2l0-0.6c0.4-0.1,0.7-0.2,0.8-0.3c0.1-0.1,0.2-0.4,0.2-0.9V6.5z M133.7,14
				h4.3c1.3,0,2.3-0.2,3-0.7c0.6-0.5,0.9-1.2,0.9-2.3c0-1-0.3-1.8-1-2.2c-0.7-0.5-1.7-0.7-3.1-0.7h-4.1V14z"/>
			<path class="st0" d="M149.7,26.7v-0.6c0.4-0.1,0.7-0.2,0.9-0.4c0.1-0.1,0.2-0.4,0.2-0.8V6.5c0-0.4-0.1-0.7-0.2-0.8
				c-0.1-0.1-0.4-0.3-0.9-0.4V4.7H164c0.4,0,0.6-0.1,0.8-0.2c0.2-0.1,0.3-0.4,0.4-0.9h0.6v5.6h-0.6c-0.1-0.4-0.2-0.7-0.4-0.9
				c-0.2-0.1-0.4-0.2-0.8-0.2h-9.1v5.5h5.3c0.4,0,0.7-0.1,0.9-0.2c0.2-0.1,0.3-0.4,0.4-0.8h0.6v5.5h-0.6c-0.1-0.4-0.2-0.7-0.4-0.8
				c-0.2-0.1-0.4-0.2-0.9-0.2h-5.3v6.2h9.5c0.4,0,0.7-0.1,0.8-0.2c0.2-0.1,0.3-0.4,0.4-0.9h0.6v5.6h-0.6c-0.1-0.4-0.2-0.7-0.4-0.9
				c-0.2-0.1-0.4-0.2-0.8-0.2H149.7z"/>
			<path class="st0" d="M168.8,26.7v-0.6c0.4-0.1,0.7-0.2,0.9-0.4c0.1-0.1,0.2-0.4,0.2-0.8V6.5c0-0.4-0.1-0.7-0.2-0.8
				c-0.1-0.2-0.4-0.3-0.9-0.4V4.7h6.4v0.6c-0.5,0.1-0.7,0.2-0.9,0.4c-0.1,0.2-0.2,0.4-0.2,0.8v18.4c0,0.4,0.1,0.6,0.2,0.8
				c0.1,0.2,0.4,0.3,0.9,0.4v0.6H168.8z"/>
			<path class="st0" d="M182.7,26.7l0-0.6c0.4-0.1,0.7-0.2,0.8-0.4c0.1-0.1,0.2-0.4,0.2-0.9V8.3h-5c-0.4,0-0.7,0.1-0.9,0.2
				c-0.2,0.2-0.3,0.4-0.4,0.8h-0.6V3.7h0.6c0.1,0.4,0.2,0.7,0.3,0.8c0.2,0.1,0.5,0.2,0.9,0.2H193c0.4,0,0.7-0.1,0.9-0.2
				c0.2-0.2,0.3-0.4,0.4-0.8h0.6v5.7h-0.6c-0.1-0.4-0.2-0.7-0.4-0.8c-0.2-0.1-0.4-0.2-0.9-0.2h-5.1v16.6c0,0.5,0.1,0.8,0.2,0.9
				c0.1,0.1,0.4,0.2,0.8,0.3v0.6H182.7z"/>
			<path class="st0" d="M196.5,26.7v-0.6c0.4-0.1,0.7-0.2,0.9-0.4c0.1-0.1,0.2-0.4,0.2-0.8V6.5c0-0.4-0.1-0.7-0.2-0.8
				c-0.1-0.1-0.4-0.3-0.9-0.4V4.7h14.3c0.4,0,0.6-0.1,0.8-0.2c0.2-0.1,0.3-0.4,0.4-0.9h0.6v5.6h-0.6c-0.1-0.4-0.2-0.7-0.4-0.9
				c-0.2-0.1-0.4-0.2-0.8-0.2h-9.1v5.5h5.3c0.4,0,0.7-0.1,0.9-0.2c0.2-0.1,0.3-0.4,0.4-0.8h0.6v5.5h-0.6c-0.1-0.4-0.2-0.7-0.4-0.8
				c-0.2-0.1-0.4-0.2-0.9-0.2h-5.3v6.2h9.5c0.4,0,0.7-0.1,0.8-0.2c0.2-0.1,0.3-0.4,0.4-0.9h0.6v5.6h-0.6c-0.1-0.4-0.2-0.7-0.4-0.9
				c-0.2-0.1-0.4-0.2-0.8-0.2H196.5z"/>
			<path class="st0" d="M215.6,26.7v-0.6c0.4-0.1,0.7-0.2,0.9-0.3c0.2-0.2,0.3-0.4,0.3-0.7V6.1c0-0.3,0-0.5-0.1-0.6
				c-0.1-0.1-0.3-0.2-0.7-0.2l0-0.6h7v0.6h-0.1c-0.2,0-0.4,0-0.5,0.1c-0.1,0.1-0.2,0.2-0.2,0.4c0,0.1,0,0.2,0.1,0.3
				c0,0.1,0.1,0.2,0.2,0.4l7.3,12.4V6.5c0-0.5-0.1-0.8-0.2-0.9c-0.1-0.1-0.4-0.2-0.8-0.3V4.7h5.9v0.6c-0.4,0.1-0.7,0.1-0.8,0.3
				c-0.1,0.1-0.2,0.4-0.2,0.9v18.7c0,0.4,0.1,0.6,0.2,0.8c0.1,0.1,0.3,0.2,0.7,0.2l0,0.6h-6.4l0-0.6c0.3,0,0.6-0.1,0.7-0.2
				c0.1-0.1,0.2-0.3,0.2-0.5v-0.3L220.7,11v14.1c0,0.3,0.1,0.6,0.2,0.7c0.2,0.2,0.4,0.3,0.8,0.3v0.6H215.6z"/>
			<path class="st0" d="M238.2,26.7v-0.6c0.4-0.1,0.7-0.2,0.9-0.4c0.1-0.2,0.2-0.4,0.2-0.9V6.5c0-0.4-0.1-0.7-0.2-0.8
				c-0.1-0.2-0.4-0.3-0.9-0.4V4.7h14.3c0.4,0,0.6-0.1,0.8-0.2c0.2-0.1,0.3-0.4,0.4-0.9h0.6v5.7h-0.6c-0.1-0.4-0.2-0.7-0.4-0.9
				c-0.2-0.1-0.4-0.2-0.8-0.2h-9.1v5.4h5.3c0.4,0,0.7-0.1,0.8-0.2c0.2-0.1,0.3-0.4,0.4-0.9h0.6v5.7H250c-0.1-0.4-0.2-0.7-0.4-0.8
				c-0.2-0.1-0.4-0.2-0.9-0.2h-5.3v7.8c0,0.4,0.1,0.7,0.2,0.9c0.2,0.2,0.4,0.3,0.9,0.4v0.6H238.2z"/>
			<path class="st0" d="M255.8,26.7v-0.6c0.4-0.1,0.7-0.2,0.9-0.4c0.1-0.1,0.2-0.4,0.2-0.8V6.5c0-0.4-0.1-0.7-0.2-0.8
				c-0.1-0.1-0.4-0.3-0.9-0.4V4.7h14.3c0.4,0,0.6-0.1,0.8-0.2c0.2-0.1,0.3-0.4,0.4-0.9h0.6v5.6h-0.6c-0.1-0.4-0.2-0.7-0.4-0.9
				c-0.2-0.1-0.4-0.2-0.8-0.2h-9.1v5.5h5.3c0.4,0,0.7-0.1,0.9-0.2c0.2-0.1,0.3-0.4,0.4-0.8h0.6v5.5h-0.6c-0.1-0.4-0.2-0.7-0.4-0.8
				c-0.2-0.1-0.4-0.2-0.9-0.2h-5.3v6.2h9.5c0.4,0,0.7-0.1,0.8-0.2c0.2-0.1,0.3-0.4,0.4-0.9h0.6v5.6h-0.6c-0.1-0.4-0.2-0.7-0.4-0.9
				c-0.2-0.1-0.4-0.2-0.8-0.2H255.8z"/>
			<path class="st0" d="M275.2,26.7v-0.6c0.4-0.1,0.7-0.2,0.8-0.3c0.1-0.1,0.2-0.4,0.2-0.9V6.5c0-0.4-0.1-0.7-0.2-0.9
				c-0.1-0.2-0.4-0.3-0.8-0.4V4.7h6.4v0.6c-0.4,0.1-0.7,0.2-0.9,0.4c-0.1,0.2-0.2,0.4-0.2,0.9v16.7h9.1c0.4,0,0.7-0.1,0.9-0.2
				c0.2-0.1,0.3-0.4,0.3-0.8h0.6v5.6h-0.6c-0.1-0.4-0.2-0.7-0.4-0.9c-0.1-0.1-0.4-0.2-0.8-0.2H275.2z"/>
			<path class="st0" d="M293,26.7v-0.6c0.4-0.1,0.7-0.2,0.9-0.4c0.1-0.1,0.2-0.4,0.2-0.8V6.5c0-0.4-0.1-0.7-0.2-0.8
				c-0.1-0.1-0.4-0.3-0.9-0.4V4.7h7.9c1.9,0,3.3,0.1,4.3,0.3c1,0.2,1.9,0.5,2.6,1c1.5,0.9,2.6,2.2,3.3,3.8c0.7,1.6,1.1,3.5,1.1,5.7
				c0,3.7-0.9,6.5-2.8,8.4c-1.9,1.9-4.7,2.8-8.5,2.8H293z M298.3,23.2h2.2c2.8,0,4.7-0.6,5.9-1.7c1.1-1.1,1.7-3.1,1.7-5.9
				c0-2.7-0.6-4.6-1.7-5.8c-1.1-1.2-3-1.8-5.6-1.8h-2.5V23.2z"/>
			<path class="st0" d="M319.5,26.7l0-0.6c0.4-0.1,0.7-0.2,0.8-0.4c0.1-0.1,0.2-0.4,0.2-0.9V8.3h-5c-0.4,0-0.7,0.1-0.9,0.2
				c-0.2,0.2-0.3,0.4-0.4,0.8h-0.6V3.7h0.6c0.1,0.4,0.2,0.7,0.3,0.8c0.2,0.1,0.5,0.2,0.9,0.2h14.3c0.4,0,0.7-0.1,0.9-0.2
				c0.2-0.2,0.3-0.4,0.4-0.8h0.6v5.7h-0.6c-0.1-0.4-0.2-0.7-0.4-0.8c-0.2-0.1-0.4-0.2-0.9-0.2h-5.1v16.6c0,0.5,0.1,0.8,0.2,0.9
				c0.1,0.1,0.4,0.2,0.8,0.3v0.6H319.5z"/>
			<path class="st0" d="M372.6,6.5c0-0.5-0.1-0.8-0.2-0.9c-0.1-0.1-0.4-0.3-0.8-0.3V4.7h10.1c2.4,0,4.3,0.6,5.6,1.7
				c1.3,1.1,2,2.7,2,4.8c0,1.4-0.4,2.6-1.2,3.5c-0.8,1-1.9,1.7-3.4,2.2l4,7.9c0.1,0.3,0.3,0.6,0.6,0.8c0.2,0.2,0.5,0.4,0.9,0.5v0.6
				h-6.6v-0.6c0,0,0.1,0,0.1,0c0.5-0.1,0.8-0.3,0.8-0.4c0,0,0-0.1-0.1-0.3c0-0.2-0.1-0.3-0.2-0.5l-3.7-7.5h-3.7v7.5
				c0,0.4,0.1,0.7,0.2,0.9c0.1,0.2,0.4,0.3,0.9,0.4v0.6h-6.2l0-0.6c0.4-0.1,0.7-0.2,0.8-0.3c0.1-0.1,0.2-0.4,0.2-0.9V6.5z M376.8,14
				h4.3c1.3,0,2.3-0.2,3-0.7c0.6-0.5,0.9-1.2,0.9-2.3c0-1-0.3-1.8-1-2.2c-0.7-0.5-1.7-0.7-3.1-0.7h-4.1V14z"/>
			<path class="st0" d="M392.3,15.7c0-3.3,0.9-6,2.8-8.2c1.9-2.1,4.3-3.2,7.2-3.2c2.9,0,5.3,1.1,7.2,3.2c1.9,2.1,2.8,4.9,2.8,8.2
				c0,3.3-0.9,6-2.8,8.2c-1.9,2.1-4.3,3.2-7.2,3.2c-2.9,0-5.3-1.1-7.2-3.2C393.2,21.8,392.3,19,392.3,15.7 M396.6,15.7
				c0,2.3,0.5,4.2,1.6,5.6c1.1,1.4,2.4,2.1,4.1,2.1c1.7,0,3.1-0.7,4.1-2.1c1.1-1.4,1.6-3.3,1.6-5.6c0-2.3-0.5-4.2-1.6-5.6
				c-1.1-1.4-2.5-2.2-4.1-2.2c-1.7,0-3.1,0.7-4.1,2.1C397.1,11.5,396.6,13.4,396.6,15.7z"/>
			<path class="st0" d="M416.5,6.5c0-0.4-0.1-0.7-0.2-0.8c-0.1-0.2-0.4-0.3-0.9-0.4V4.7h6.3v0.6c-0.5,0.1-0.7,0.2-0.9,0.4
				c-0.1,0.2-0.2,0.4-0.2,0.8v13.1c0,1.3,0.4,2.3,1.2,2.9c0.8,0.7,1.9,1,3.4,1c1.5,0,2.7-0.3,3.4-1c0.8-0.6,1.1-1.6,1.1-3V6.5
				c0-0.4-0.1-0.7-0.2-0.9c-0.1-0.2-0.4-0.3-0.9-0.4V4.7h6.1v0.6c-0.4,0.1-0.7,0.2-0.9,0.4c-0.1,0.2-0.2,0.4-0.2,0.9v13.1
				c0,2.5-0.7,4.3-2.1,5.6c-1.4,1.2-3.5,1.9-6.3,1.9c-2.9,0-5.1-0.6-6.6-1.9c-1.5-1.3-2.2-3.1-2.2-5.6V6.5z"/>
			<path class="st0" d="M443.8,14.2h4.1c1.3,0,2.3-0.3,2.9-0.8c0.6-0.5,0.9-1.3,0.9-2.3c0-1.1-0.3-1.9-0.9-2.3
				c-0.6-0.5-1.6-0.7-3.1-0.7h-4V14.2z M439.6,6.5c0-0.5-0.1-0.8-0.2-0.9c-0.1-0.1-0.4-0.3-0.8-0.3V4.7h10.2c2.3,0,4,0.6,5.3,1.6
				c1.3,1.1,1.9,2.6,1.9,4.5c0,2.1-0.7,3.8-2,5c-1.3,1.2-3.2,1.8-5.6,1.8h-4.7v7.2c0,0.4,0.1,0.7,0.2,0.9c0.1,0.2,0.4,0.3,0.8,0.4
				l0,0.6h-6.3l0-0.6c0.4-0.1,0.6-0.2,0.8-0.3c0.1-0.1,0.2-0.4,0.2-0.9V6.5z"/>
		</g>
		<g>
			<path class="st0" d="M113.8,52.6h-1.9l0.8-6.7h-7.2l-0.8,6.7h-1.9l1.8-14.7h1.9l-0.8,6.6h7.2l0.8-6.6h1.9L113.8,52.6z"/>
			<path class="st0" d="M125.1,44.5c0,0.5-0.1,0.9-0.3,1.2c-0.2,0.4-0.5,0.7-1,1c-0.5,0.3-1.2,0.6-2,0.8c-0.9,0.2-2,0.4-3.3,0.5
				c0,0.1,0,0.1,0,0.2c0,0.1,0,0.1,0,0.2c0,0.9,0.2,1.6,0.6,2.1c0.4,0.5,1,0.7,1.8,0.7c0.3,0,0.6,0,0.9-0.1c0.3-0.1,0.5-0.2,0.7-0.3
				c0.2-0.1,0.4-0.2,0.5-0.3c0.2-0.1,0.3-0.2,0.4-0.3c0.1-0.1,0.2-0.2,0.4-0.3c0.1-0.1,0.2-0.1,0.3-0.1c0.1,0,0.2,0.1,0.3,0.2
				l0.5,0.6c-0.3,0.4-0.7,0.7-1,0.9c-0.3,0.3-0.7,0.5-1,0.6c-0.3,0.2-0.7,0.3-1.1,0.4s-0.8,0.1-1.2,0.1c-0.6,0-1.1-0.1-1.6-0.3
				c-0.5-0.2-0.9-0.5-1.2-0.8c-0.3-0.4-0.6-0.8-0.8-1.3c-0.2-0.5-0.3-1.1-0.3-1.7c0-0.5,0.1-1.1,0.2-1.6c0.1-0.5,0.3-1,0.5-1.5
				c0.2-0.5,0.5-0.9,0.8-1.3c0.3-0.4,0.7-0.8,1.1-1.1c0.4-0.3,0.8-0.5,1.3-0.7c0.5-0.2,1-0.3,1.6-0.3c0.5,0,1,0.1,1.4,0.2
				c0.4,0.1,0.7,0.3,0.9,0.6c0.2,0.2,0.4,0.5,0.5,0.8C125,44,125.1,44.2,125.1,44.5z M121.9,43.4c-0.4,0-0.8,0.1-1.2,0.3
				c-0.4,0.2-0.7,0.4-1,0.7c-0.3,0.3-0.5,0.7-0.7,1.1c-0.2,0.4-0.4,0.9-0.5,1.4c1.1-0.1,1.9-0.3,2.5-0.4c0.6-0.2,1.1-0.3,1.5-0.5
				c0.3-0.2,0.6-0.4,0.7-0.6c0.1-0.2,0.2-0.5,0.2-0.7c0-0.1,0-0.3-0.1-0.4c-0.1-0.1-0.1-0.3-0.3-0.4c-0.1-0.1-0.3-0.2-0.5-0.3
				C122.4,43.5,122.2,43.4,121.9,43.4z"/>
			<path class="st0" d="M133.8,52.6h-0.9c-0.2,0-0.4-0.1-0.5-0.2c-0.1-0.1-0.1-0.3-0.1-0.5l0.2-2.1c-0.2,0.4-0.5,0.8-0.8,1.2
				c-0.3,0.4-0.6,0.7-0.9,0.9c-0.3,0.2-0.6,0.4-1,0.6c-0.3,0.1-0.7,0.2-1.1,0.2c-0.4,0-0.8-0.1-1.1-0.2c-0.3-0.2-0.6-0.4-0.9-0.7
				c-0.2-0.3-0.4-0.7-0.5-1.1c-0.1-0.5-0.2-1-0.2-1.6c0-0.6,0.1-1.2,0.2-1.8c0.2-0.6,0.4-1.1,0.7-1.7c0.3-0.5,0.6-1,1-1.4
				c0.4-0.4,0.8-0.8,1.3-1.1c0.5-0.3,1-0.6,1.6-0.7s1.1-0.3,1.8-0.3c0.4,0,0.9,0,1.3,0.1s0.8,0.2,1.2,0.4L133.8,52.6z M129.4,51.3
				c0.3,0,0.7-0.1,1-0.3c0.3-0.2,0.6-0.5,0.9-0.9c0.3-0.4,0.6-0.8,0.8-1.3c0.2-0.5,0.5-1.1,0.7-1.6l0.4-3.5
				c-0.1-0.1-0.3-0.2-0.4-0.2c-0.1,0-0.3,0-0.4,0c-0.4,0-0.8,0.1-1.2,0.2c-0.4,0.1-0.7,0.3-1.1,0.6c-0.3,0.2-0.6,0.5-0.9,0.9
				c-0.3,0.3-0.5,0.7-0.7,1.1c-0.2,0.4-0.3,0.8-0.5,1.3c-0.1,0.4-0.2,0.9-0.2,1.4C127.8,50.4,128.3,51.3,129.4,51.3z"/>
			<path class="st0" d="M136.7,52.6l1.8-15.1h1.8l-1.8,15.1H136.7z"/>
			<path class="st0" d="M142.3,50.7c0,0,0-0.1,0-0.2c0-0.1,0-0.2,0-0.3c0-0.1,0-0.3,0-0.5c0-0.2,0.1-0.5,0.1-0.8l0.6-5.2H142
				c-0.1,0-0.2,0-0.2-0.1c-0.1-0.1-0.1-0.1-0.1-0.2c0,0,0-0.1,0-0.1c0-0.1,0-0.1,0-0.2c0-0.1,0-0.2,0-0.2c0-0.1,0-0.2,0-0.2l1.6-0.2
				l0.8-3.2c0-0.1,0.1-0.2,0.2-0.3c0.1-0.1,0.2-0.1,0.3-0.1h1l-0.5,3.6h2.7l-0.2,1.3h-2.7l-0.6,5.1c0,0.3-0.1,0.5-0.1,0.7
				c0,0.2,0,0.3,0,0.4c0,0.1,0,0.2,0,0.2c0,0,0,0.1,0,0.1c0,0.3,0.1,0.6,0.2,0.8s0.4,0.3,0.7,0.3c0.2,0,0.3,0,0.5-0.1
				c0.1-0.1,0.3-0.1,0.4-0.2c0.1-0.1,0.2-0.1,0.3-0.2c0.1-0.1,0.1-0.1,0.2-0.1s0.1,0,0.1,0c0,0,0.1,0.1,0.1,0.1l0.4,0.9
				c-0.3,0.3-0.7,0.5-1.1,0.7s-0.9,0.3-1.3,0.3c-0.7,0-1.2-0.2-1.6-0.5S142.3,51.4,142.3,50.7z"/>
			<path class="st0" d="M148.5,52.6l1.8-15.1h1.8l-0.8,7c0.5-0.8,1.1-1.4,1.8-1.8c0.7-0.4,1.3-0.6,2-0.6c0.8,0,1.4,0.3,1.8,0.8
				c0.4,0.5,0.6,1.3,0.6,2.3c0,0.1,0,0.3,0,0.4c0,0.1,0,0.3,0,0.5l-0.8,6.6h-1.8l0.8-6.6c0-0.1,0-0.3,0-0.4c0-0.1,0-0.2,0-0.4
				c0-0.6-0.1-1-0.3-1.2c-0.2-0.3-0.5-0.4-1-0.4c-0.3,0-0.6,0.1-0.9,0.3c-0.3,0.2-0.6,0.4-0.9,0.7c-0.3,0.3-0.6,0.7-0.9,1.1
				c-0.3,0.4-0.5,0.9-0.7,1.4l-0.7,5.5H148.5z"/>
			<path class="st0" d="M165.8,52.6h-1.9l1.8-14.7h1.9L165.8,52.6z"/>
			<path class="st0" d="M169,52.6l1.2-10.4h0.9c0.4,0,0.6,0.2,0.6,0.6l-0.2,2c0.6-0.9,1.2-1.6,1.9-2.1s1.4-0.7,2.2-0.7
				c0.8,0,1.4,0.3,1.8,0.8s0.6,1.3,0.6,2.3c0,0.1,0,0.3,0,0.4c0,0.1,0,0.3,0,0.5l-0.8,6.6h-1.8l0.8-6.6c0-0.1,0-0.3,0-0.4
				c0-0.1,0-0.2,0-0.4c0-0.6-0.1-1-0.3-1.2c-0.2-0.3-0.5-0.4-1-0.4c-0.3,0-0.7,0.1-1,0.3c-0.3,0.2-0.7,0.4-1,0.8
				c-0.3,0.3-0.6,0.7-0.9,1.2c-0.3,0.5-0.5,1-0.7,1.5l-0.6,5.3H169z"/>
			<path class="st0" d="M186.5,43.9c-0.1,0.1-0.1,0.1-0.2,0.2c-0.1,0-0.1,0.1-0.2,0.1c-0.1,0-0.2,0-0.3-0.1
				c-0.1-0.1-0.2-0.2-0.4-0.3s-0.4-0.2-0.6-0.3s-0.5-0.1-0.8-0.1c-0.3,0-0.6,0-0.8,0.1c-0.3,0.1-0.5,0.2-0.7,0.4
				c-0.2,0.2-0.3,0.3-0.4,0.5c-0.1,0.2-0.1,0.4-0.1,0.6c0,0.3,0.1,0.6,0.3,0.8c0.2,0.2,0.5,0.4,0.8,0.5c0.3,0.1,0.7,0.3,1,0.4
				c0.4,0.1,0.7,0.3,1,0.5c0.3,0.2,0.6,0.5,0.8,0.8c0.2,0.3,0.3,0.7,0.3,1.2c0,0.5-0.1,0.9-0.3,1.4c-0.2,0.4-0.5,0.8-0.8,1.2
				c-0.4,0.3-0.8,0.6-1.3,0.8c-0.5,0.2-1.1,0.3-1.7,0.3c-0.7,0-1.2-0.1-1.8-0.4c-0.5-0.2-0.9-0.5-1.2-0.9l0.5-0.7
				c0.1-0.1,0.1-0.2,0.2-0.2c0.1,0,0.2-0.1,0.3-0.1c0.1,0,0.2,0,0.3,0.1c0.1,0.1,0.2,0.2,0.4,0.3c0.2,0.1,0.4,0.2,0.6,0.3
				c0.2,0.1,0.6,0.1,0.9,0.1c0.3,0,0.6-0.1,0.9-0.2c0.3-0.1,0.5-0.2,0.7-0.4c0.2-0.2,0.3-0.4,0.4-0.6c0.1-0.2,0.1-0.5,0.1-0.7
				c0-0.3-0.1-0.6-0.3-0.8c-0.2-0.2-0.5-0.4-0.8-0.5c-0.3-0.1-0.7-0.3-1-0.4c-0.4-0.1-0.7-0.3-1-0.5c-0.3-0.2-0.6-0.4-0.8-0.7
				c-0.2-0.3-0.3-0.7-0.3-1.2c0-0.4,0.1-0.9,0.3-1.3c0.2-0.4,0.4-0.8,0.8-1.1c0.3-0.3,0.7-0.6,1.2-0.8c0.5-0.2,1-0.3,1.6-0.3
				c0.6,0,1.2,0.1,1.6,0.3c0.5,0.2,0.9,0.5,1.2,0.8L186.5,43.9z"/>
			<path class="st0" d="M190.7,42.3l-0.8,6.6c0,0.1,0,0.3,0,0.4s0,0.2,0,0.4c0,0.6,0.1,1,0.3,1.2c0.2,0.3,0.5,0.4,1,0.4
				c0.3,0,0.6-0.1,1-0.3c0.3-0.2,0.7-0.4,1-0.7c0.3-0.3,0.6-0.7,0.9-1.1c0.3-0.4,0.5-0.9,0.7-1.5l0.6-5.4h1.8l-1.2,10.4H195
				c-0.2,0-0.4,0-0.5-0.1c-0.1-0.1-0.2-0.2-0.2-0.4c0,0,0-0.1,0-0.2c0-0.1,0-0.2,0-0.4s0-0.3,0-0.4c0-0.1,0-0.2,0-0.2l0.1-0.8
				c-0.6,0.9-1.2,1.5-1.9,2c-0.7,0.5-1.4,0.7-2.1,0.7c-0.8,0-1.4-0.3-1.8-0.8c-0.4-0.5-0.6-1.3-0.6-2.3c0-0.1,0-0.3,0-0.4
				c0-0.1,0-0.3,0-0.5l0.8-6.6H190.7z"/>
			<path class="st0" d="M198.5,52.6l1.2-10.4h0.9c0.2,0,0.3,0,0.5,0.1c0.1,0.1,0.2,0.2,0.2,0.4c0,0,0,0.1,0,0.1c0,0.1,0,0.1,0,0.2
				s0,0.1,0,0.1c0,0,0,0.1,0,0.1l-0.1,1.9c0.4-1,0.9-1.7,1.5-2.2c0.5-0.5,1.1-0.8,1.7-0.8c0.3,0,0.6,0.1,0.9,0.2l-0.3,1.8
				c-0.3-0.1-0.6-0.2-0.9-0.2c-0.7,0-1.3,0.3-1.8,1c-0.5,0.6-1,1.6-1.3,2.9l-0.6,4.8H198.5z"/>
			<path class="st0" d="M213,52.6H212c-0.2,0-0.4-0.1-0.5-0.2c-0.1-0.1-0.1-0.3-0.1-0.5l0.2-2.1c-0.2,0.4-0.5,0.8-0.8,1.2
				c-0.3,0.4-0.6,0.7-0.9,0.9c-0.3,0.2-0.6,0.4-1,0.6c-0.3,0.1-0.7,0.2-1.1,0.2c-0.4,0-0.8-0.1-1.1-0.2c-0.3-0.2-0.6-0.4-0.9-0.7
				c-0.2-0.3-0.4-0.7-0.5-1.1c-0.1-0.5-0.2-1-0.2-1.6c0-0.6,0.1-1.2,0.2-1.8c0.2-0.6,0.4-1.1,0.7-1.7c0.3-0.5,0.6-1,1-1.4
				c0.4-0.4,0.8-0.8,1.3-1.1c0.5-0.3,1-0.6,1.6-0.7s1.1-0.3,1.8-0.3c0.4,0,0.9,0,1.3,0.1s0.8,0.2,1.2,0.4L213,52.6z M208.5,51.3
				c0.3,0,0.7-0.1,1-0.3c0.3-0.2,0.6-0.5,0.9-0.9c0.3-0.4,0.6-0.8,0.8-1.3c0.2-0.5,0.5-1.1,0.7-1.6l0.4-3.5
				c-0.1-0.1-0.3-0.2-0.4-0.2c-0.1,0-0.3,0-0.4,0c-0.4,0-0.8,0.1-1.2,0.2c-0.4,0.1-0.7,0.3-1.1,0.6c-0.3,0.2-0.6,0.5-0.9,0.9
				c-0.3,0.3-0.5,0.7-0.7,1.1c-0.2,0.4-0.3,0.8-0.5,1.3c-0.1,0.4-0.2,0.9-0.2,1.4C206.9,50.4,207.4,51.3,208.5,51.3z"/>
			<path class="st0" d="M215.7,52.6l1.2-10.4h0.9c0.4,0,0.6,0.2,0.6,0.6l-0.2,2c0.6-0.9,1.2-1.6,1.9-2.1s1.4-0.7,2.2-0.7
				c0.8,0,1.4,0.3,1.8,0.8s0.6,1.3,0.6,2.3c0,0.1,0,0.3,0,0.4c0,0.1,0,0.3,0,0.5l-0.8,6.6h-1.8l0.8-6.6c0-0.1,0-0.3,0-0.4
				c0-0.1,0-0.2,0-0.4c0-0.6-0.1-1-0.3-1.2c-0.2-0.3-0.5-0.4-1-0.4c-0.3,0-0.7,0.1-1,0.3c-0.3,0.2-0.7,0.4-1,0.8
				c-0.3,0.3-0.6,0.7-0.9,1.2c-0.3,0.5-0.5,1-0.7,1.5l-0.6,5.3H215.7z"/>
			<path class="st0" d="M233.1,51.7c-0.3,0.3-0.6,0.5-1,0.6c-0.3,0.2-0.7,0.3-1,0.3c-0.3,0.1-0.7,0.1-1.1,0.1
				c-0.6,0-1.1-0.1-1.6-0.3c-0.5-0.2-0.8-0.5-1.2-0.9c-0.3-0.4-0.5-0.8-0.7-1.3c-0.2-0.5-0.2-1.1-0.2-1.7c0-0.8,0.1-1.6,0.4-2.4
				c0.3-0.8,0.6-1.5,1.1-2c0.5-0.6,1-1.1,1.7-1.4c0.6-0.4,1.4-0.5,2.1-0.5c0.7,0,1.3,0.1,1.7,0.4c0.5,0.2,0.9,0.6,1.2,1.1l-0.6,0.7
				c0,0.1-0.1,0.1-0.2,0.1c-0.1,0-0.1,0.1-0.2,0.1c-0.1,0-0.2,0-0.3-0.1c-0.1-0.1-0.2-0.2-0.4-0.3c-0.1-0.1-0.3-0.2-0.6-0.3
				c-0.2-0.1-0.5-0.1-0.9-0.1c-0.5,0-0.9,0.1-1.3,0.4c-0.4,0.3-0.8,0.6-1.1,1c-0.3,0.4-0.6,1-0.7,1.6c-0.2,0.6-0.3,1.3-0.3,2
				c0,0.4,0,0.8,0.1,1.2c0.1,0.3,0.2,0.6,0.4,0.9c0.2,0.2,0.4,0.4,0.7,0.6c0.3,0.1,0.6,0.2,1,0.2c0.3,0,0.6,0,0.8-0.1
				c0.2-0.1,0.5-0.1,0.6-0.2c0.2-0.1,0.3-0.2,0.5-0.3c0.1-0.1,0.3-0.2,0.4-0.3c0.1-0.1,0.2-0.2,0.3-0.2c0.1-0.1,0.2-0.1,0.3-0.1
				c0.1,0,0.3,0.1,0.3,0.2l0.5,0.6C233.7,51.2,233.4,51.5,233.1,51.7z"/>
			<path class="st0" d="M243.6,44.5c0,0.5-0.1,0.9-0.3,1.2c-0.2,0.4-0.5,0.7-1,1c-0.5,0.3-1.2,0.6-2,0.8c-0.9,0.2-2,0.4-3.3,0.5
				c0,0.1,0,0.1,0,0.2c0,0.1,0,0.1,0,0.2c0,0.9,0.2,1.6,0.6,2.1c0.4,0.5,1,0.7,1.8,0.7c0.3,0,0.6,0,0.9-0.1c0.3-0.1,0.5-0.2,0.7-0.3
				c0.2-0.1,0.4-0.2,0.5-0.3c0.2-0.1,0.3-0.2,0.4-0.3c0.1-0.1,0.2-0.2,0.4-0.3c0.1-0.1,0.2-0.1,0.3-0.1c0.1,0,0.2,0.1,0.3,0.2
				l0.5,0.6c-0.3,0.4-0.7,0.7-1,0.9c-0.3,0.3-0.7,0.5-1,0.6c-0.3,0.2-0.7,0.3-1.1,0.4c-0.4,0.1-0.8,0.1-1.2,0.1
				c-0.6,0-1.1-0.1-1.6-0.3c-0.5-0.2-0.9-0.5-1.2-0.8c-0.3-0.4-0.6-0.8-0.8-1.3c-0.2-0.5-0.3-1.1-0.3-1.7c0-0.5,0.1-1.1,0.2-1.6
				c0.1-0.5,0.3-1,0.5-1.5c0.2-0.5,0.5-0.9,0.8-1.3c0.3-0.4,0.7-0.8,1.1-1.1c0.4-0.3,0.8-0.5,1.3-0.7c0.5-0.2,1-0.3,1.6-0.3
				c0.5,0,1,0.1,1.4,0.2c0.4,0.1,0.7,0.3,0.9,0.6c0.2,0.2,0.4,0.5,0.5,0.8C243.5,44,243.6,44.2,243.6,44.5z M240.5,43.4
				c-0.4,0-0.8,0.1-1.2,0.3c-0.4,0.2-0.7,0.4-1,0.7c-0.3,0.3-0.5,0.7-0.7,1.1c-0.2,0.4-0.4,0.9-0.5,1.4c1.1-0.1,1.9-0.3,2.5-0.4
				c0.6-0.2,1.1-0.3,1.5-0.5c0.3-0.2,0.6-0.4,0.7-0.6c0.1-0.2,0.2-0.5,0.2-0.7c0-0.1,0-0.3-0.1-0.4c-0.1-0.1-0.1-0.3-0.3-0.4
				c-0.1-0.1-0.3-0.2-0.5-0.3C241,43.5,240.7,43.4,240.5,43.4z"/>
			<path class="st0" d="M249,52.6l1.8-14.7h4.3c0.8,0,1.4,0.1,2,0.2c0.6,0.2,1,0.4,1.4,0.7c0.4,0.3,0.6,0.6,0.8,1
				c0.2,0.4,0.3,0.9,0.3,1.4c0,0.4-0.1,0.9-0.2,1.2c-0.1,0.4-0.3,0.8-0.6,1.1c-0.3,0.3-0.6,0.6-0.9,0.9s-0.8,0.5-1.3,0.6
				c0.9,0.2,1.5,0.5,2,1c0.4,0.5,0.7,1.1,0.7,1.9c0,0.7-0.1,1.3-0.4,1.9c-0.2,0.6-0.6,1.1-1,1.5c-0.5,0.4-1,0.7-1.7,1
				c-0.7,0.2-1.4,0.3-2.2,0.3H249z M251.7,45.9l-0.6,5.2h2.9c0.5,0,1-0.1,1.4-0.2c0.4-0.1,0.8-0.3,1-0.6c0.3-0.3,0.5-0.6,0.6-1
				c0.1-0.4,0.2-0.8,0.2-1.3c0-0.6-0.2-1.2-0.7-1.6c-0.4-0.4-1.1-0.6-2-0.6H251.7z M251.9,44.6h2.4c0.6,0,1-0.1,1.4-0.2
				c0.4-0.1,0.8-0.4,1-0.6c0.3-0.3,0.5-0.6,0.6-0.9c0.1-0.4,0.2-0.8,0.2-1.2c0-0.7-0.2-1.2-0.6-1.6c-0.4-0.4-1.1-0.5-2-0.5h-2.4
				L251.9,44.6z"/>
			<path class="st0" d="M260.9,52.6l1.3-10.4h0.9c0.2,0,0.3,0,0.5,0.1s0.2,0.2,0.2,0.4c0,0,0,0.1,0,0.1c0,0.1,0,0.1,0,0.2
				s0,0.1,0,0.1s0,0.1,0,0.1l-0.1,1.9c0.4-1,0.9-1.7,1.5-2.2c0.5-0.5,1.1-0.8,1.7-0.8c0.3,0,0.6,0.1,0.9,0.2l-0.3,1.8
				c-0.3-0.1-0.6-0.2-0.9-0.2c-0.7,0-1.3,0.3-1.8,1s-1,1.6-1.3,2.9l-0.6,4.8H260.9z"/>
			<path class="st0" d="M271.4,52.8c-0.6,0-1.1-0.1-1.6-0.3c-0.5-0.2-0.9-0.5-1.2-0.8c-0.3-0.4-0.6-0.8-0.8-1.4
				c-0.2-0.5-0.3-1.1-0.3-1.8c0-0.9,0.1-1.7,0.4-2.5c0.3-0.8,0.6-1.4,1.1-2c0.5-0.6,1-1,1.7-1.4c0.6-0.3,1.3-0.5,2.1-0.5
				c0.6,0,1.1,0.1,1.6,0.3c0.5,0.2,0.9,0.5,1.2,0.8c0.3,0.4,0.6,0.8,0.8,1.4c0.2,0.5,0.3,1.1,0.3,1.8c0,0.9-0.1,1.7-0.4,2.5
				c-0.3,0.8-0.6,1.4-1.1,2c-0.5,0.6-1,1-1.7,1.4C272.8,52.6,272.1,52.8,271.4,52.8z M271.5,51.4c0.5,0,1-0.1,1.4-0.4
				c0.4-0.3,0.8-0.6,1-1.1c0.3-0.5,0.5-1,0.7-1.6c0.2-0.6,0.2-1.2,0.2-1.9c0-1-0.2-1.7-0.6-2.2c-0.4-0.5-0.9-0.7-1.6-0.7
				c-0.5,0-1,0.1-1.4,0.4c-0.4,0.3-0.8,0.6-1,1.1c-0.3,0.5-0.5,1-0.7,1.6s-0.2,1.2-0.2,1.9c0,1,0.2,1.7,0.6,2.2
				C270.3,51.1,270.8,51.4,271.5,51.4z"/>
			<path class="st0" d="M281.7,37.5l-1.1,8.9h0.3c0.1,0,0.2,0,0.3-0.1c0.1,0,0.2-0.1,0.3-0.2l3.4-3.5c0.1-0.1,0.2-0.2,0.3-0.3
				c0.1-0.1,0.2-0.1,0.4-0.1h1.6l-4,4.1c-0.1,0.1-0.2,0.2-0.3,0.3c-0.1,0.1-0.2,0.2-0.3,0.2c0.1,0.1,0.2,0.2,0.3,0.3
				c0.1,0.1,0.1,0.2,0.2,0.4l3.1,5.1h-1.6c-0.1,0-0.3,0-0.4-0.1s-0.2-0.1-0.3-0.3l-2.6-4.2c-0.1-0.1-0.2-0.2-0.3-0.3
				c-0.1,0-0.2-0.1-0.4-0.1h-0.3l-0.6,5h-1.8l1.9-15.1H281.7z"/>
			<path class="st0" d="M295.6,44.5c0,0.5-0.1,0.9-0.3,1.2c-0.2,0.4-0.5,0.7-1,1c-0.5,0.3-1.2,0.6-2,0.8c-0.9,0.2-2,0.4-3.3,0.5
				c0,0.1,0,0.1,0,0.2c0,0.1,0,0.1,0,0.2c0,0.9,0.2,1.6,0.6,2.1c0.4,0.5,1,0.7,1.8,0.7c0.3,0,0.6,0,0.9-0.1c0.3-0.1,0.5-0.2,0.7-0.3
				c0.2-0.1,0.4-0.2,0.5-0.3c0.2-0.1,0.3-0.2,0.4-0.3c0.1-0.1,0.2-0.2,0.4-0.3c0.1-0.1,0.2-0.1,0.3-0.1c0.1,0,0.2,0.1,0.3,0.2
				l0.4,0.6c-0.3,0.4-0.7,0.7-1,0.9s-0.7,0.5-1,0.6s-0.7,0.3-1.1,0.4s-0.8,0.1-1.2,0.1c-0.6,0-1.1-0.1-1.6-0.3
				c-0.5-0.2-0.9-0.5-1.2-0.8c-0.3-0.4-0.6-0.8-0.8-1.3c-0.2-0.5-0.3-1.1-0.3-1.7c0-0.5,0.1-1.1,0.2-1.6c0.1-0.5,0.3-1,0.5-1.5
				c0.2-0.5,0.5-0.9,0.8-1.3c0.3-0.4,0.7-0.8,1.1-1.1c0.4-0.3,0.8-0.5,1.3-0.7c0.5-0.2,1-0.3,1.6-0.3c0.5,0,1,0.1,1.4,0.2
				c0.4,0.1,0.7,0.3,0.9,0.6c0.2,0.2,0.4,0.5,0.5,0.8C295.5,44,295.6,44.2,295.6,44.5z M292.4,43.4c-0.4,0-0.8,0.1-1.2,0.3
				c-0.4,0.2-0.7,0.4-1,0.7c-0.3,0.3-0.5,0.7-0.7,1.1c-0.2,0.4-0.4,0.9-0.5,1.4c1.1-0.1,1.9-0.3,2.5-0.4c0.6-0.2,1.1-0.3,1.5-0.5
				c0.3-0.2,0.6-0.4,0.7-0.6c0.1-0.2,0.2-0.5,0.2-0.7c0-0.1,0-0.3-0.1-0.4c-0.1-0.1-0.1-0.3-0.3-0.4c-0.1-0.1-0.3-0.2-0.5-0.3
				C292.9,43.5,292.7,43.4,292.4,43.4z"/>
			<path class="st0" d="M296.7,52.6l1.3-10.4h0.9c0.2,0,0.3,0,0.5,0.1s0.2,0.2,0.2,0.4c0,0,0,0.1,0,0.1c0,0.1,0,0.1,0,0.2
				s0,0.1,0,0.1s0,0.1,0,0.1l-0.1,1.9c0.4-1,0.9-1.7,1.5-2.2c0.5-0.5,1.1-0.8,1.7-0.8c0.3,0,0.6,0.1,0.9,0.2l-0.3,1.8
				c-0.3-0.1-0.6-0.2-0.9-0.2c-0.7,0-1.3,0.3-1.8,1s-1,1.6-1.3,2.9l-0.6,4.8H296.7z"/>
			<path class="st0" d="M311.1,52.6h-0.9c-0.2,0-0.4-0.1-0.5-0.2c-0.1-0.1-0.1-0.3-0.1-0.5l0.2-2.1c-0.2,0.4-0.5,0.8-0.8,1.2
				c-0.3,0.4-0.6,0.7-0.9,0.9c-0.3,0.2-0.6,0.4-1,0.6c-0.3,0.1-0.7,0.2-1.1,0.2c-0.4,0-0.8-0.1-1.1-0.2c-0.3-0.2-0.6-0.4-0.9-0.7
				c-0.2-0.3-0.4-0.7-0.5-1.1c-0.1-0.5-0.2-1-0.2-1.6c0-0.6,0.1-1.2,0.2-1.8c0.2-0.6,0.4-1.1,0.7-1.7c0.3-0.5,0.6-1,1-1.4
				c0.4-0.4,0.8-0.8,1.3-1.1c0.5-0.3,1-0.6,1.6-0.7s1.1-0.3,1.8-0.3c0.4,0,0.9,0,1.3,0.1c0.4,0.1,0.8,0.2,1.2,0.4L311.1,52.6z
				 M306.7,51.3c0.3,0,0.7-0.1,1-0.3c0.3-0.2,0.6-0.5,0.9-0.9c0.3-0.4,0.6-0.8,0.8-1.3c0.2-0.5,0.5-1.1,0.7-1.6l0.4-3.5
				c-0.1-0.1-0.3-0.2-0.4-0.2c-0.1,0-0.3,0-0.4,0c-0.4,0-0.8,0.1-1.2,0.2c-0.4,0.1-0.7,0.3-1.1,0.6c-0.3,0.2-0.6,0.5-0.9,0.9
				c-0.3,0.3-0.5,0.7-0.7,1.1c-0.2,0.4-0.3,0.8-0.5,1.3c-0.1,0.4-0.2,0.9-0.2,1.4C305.1,50.4,305.6,51.3,306.7,51.3z"/>
			<path class="st0" d="M321.5,45.1c0,0.3,0,0.6-0.1,0.9c-0.1,0.3-0.2,0.5-0.3,0.8c-0.1,0.2-0.2,0.5-0.4,0.7
				c-0.1,0.2-0.3,0.4-0.4,0.6c-0.1,0.2-0.2,0.4-0.3,0.6c-0.1,0.2-0.1,0.4-0.1,0.7c0,0.3,0.1,0.5,0.2,0.8c0.1,0.2,0.3,0.5,0.5,0.7
				c0.2,0.2,0.3,0.5,0.5,0.8c0.1,0.3,0.2,0.6,0.2,1c0,0.5-0.1,0.9-0.3,1.4c-0.2,0.4-0.5,0.8-1,1.2c-0.4,0.3-0.9,0.6-1.5,0.8
				c-0.6,0.2-1.3,0.3-2,0.3c-0.6,0-1.1-0.1-1.6-0.2c-0.5-0.1-0.9-0.3-1.3-0.5c-0.3-0.2-0.6-0.5-0.8-0.8c-0.2-0.3-0.3-0.7-0.3-1
				c0-0.5,0.1-1,0.4-1.4c0.3-0.4,0.6-0.7,1.1-1c0.5-0.3,1-0.4,1.6-0.6c0.6-0.1,1.2-0.2,1.8-0.2c0.2,0,0.5,0,0.7,0
				c0.2,0,0.5,0,0.7,0.1c-0.1-0.1-0.1-0.3-0.1-0.4c0-0.1-0.1-0.3-0.1-0.5c0-0.2,0-0.4,0.1-0.7s0.2-0.5,0.3-0.8
				c-0.3,0.2-0.5,0.3-0.9,0.4c-0.3,0.1-0.7,0.1-1.1,0.1c-0.4,0-0.8-0.1-1.1-0.2c-0.3-0.1-0.6-0.3-0.9-0.6c-0.3-0.3-0.5-0.6-0.6-0.9
				c-0.1-0.4-0.2-0.8-0.2-1.3c0-0.5,0.1-1,0.3-1.4c0.2-0.5,0.4-0.9,0.8-1.3c0.3-0.4,0.8-0.7,1.3-0.9c0.5-0.2,1.1-0.3,1.8-0.3
				c0.8,0,1.4,0.2,2,0.5h2.8l-0.1,0.6c0,0.1-0.1,0.2-0.1,0.3s-0.2,0.2-0.3,0.2l-1.3,0.2c0.1,0.2,0.1,0.4,0.1,0.6
				C321.5,44.7,321.5,44.9,321.5,45.1z M319.6,52.9c0-0.2,0-0.3-0.1-0.5c0-0.2-0.1-0.3-0.1-0.4c-0.4-0.1-0.7-0.1-1-0.1
				c-0.3,0-0.6,0-0.9,0c-0.6,0-1,0-1.5,0.1c-0.4,0.1-0.7,0.2-1,0.4c-0.3,0.2-0.5,0.4-0.6,0.6c-0.1,0.2-0.2,0.4-0.2,0.7
				c0,0.5,0.2,0.9,0.6,1.1c0.4,0.3,1,0.4,1.8,0.4c0.5,0,0.9-0.1,1.2-0.2c0.4-0.1,0.7-0.3,1-0.5c0.3-0.2,0.5-0.4,0.6-0.7
				C319.5,53.5,319.6,53.2,319.6,52.9z M317.5,48c0.4,0,0.7-0.1,1-0.2c0.3-0.2,0.5-0.4,0.7-0.6c0.2-0.3,0.3-0.6,0.4-0.9
				c0.1-0.3,0.2-0.7,0.2-1c0-0.6-0.2-1.1-0.5-1.4c-0.3-0.3-0.7-0.5-1.3-0.5c-0.4,0-0.7,0.1-1,0.2c-0.3,0.2-0.5,0.4-0.7,0.6
				c-0.2,0.3-0.3,0.5-0.4,0.9c-0.1,0.3-0.1,0.7-0.1,1c0,0.6,0.1,1.1,0.4,1.4C316.6,47.8,317,48,317.5,48z"/>
			<path class="st0" d="M331.7,44.5c0,0.5-0.1,0.9-0.3,1.2c-0.2,0.4-0.5,0.7-1,1c-0.5,0.3-1.2,0.6-2,0.8s-2,0.4-3.3,0.5
				c0,0.1,0,0.1,0,0.2c0,0.1,0,0.1,0,0.2c0,0.9,0.2,1.6,0.6,2.1c0.4,0.5,1,0.7,1.8,0.7c0.3,0,0.6,0,0.9-0.1c0.3-0.1,0.5-0.2,0.7-0.3
				c0.2-0.1,0.4-0.2,0.5-0.3c0.2-0.1,0.3-0.2,0.4-0.3c0.1-0.1,0.2-0.2,0.4-0.3c0.1-0.1,0.2-0.1,0.3-0.1c0.1,0,0.2,0.1,0.3,0.2
				l0.4,0.6c-0.3,0.4-0.7,0.7-1,0.9c-0.3,0.3-0.7,0.5-1,0.6s-0.7,0.3-1.1,0.4c-0.4,0.1-0.8,0.1-1.2,0.1c-0.6,0-1.1-0.1-1.6-0.3
				c-0.5-0.2-0.9-0.5-1.2-0.8c-0.3-0.4-0.6-0.8-0.8-1.3c-0.2-0.5-0.3-1.1-0.3-1.7c0-0.5,0.1-1.1,0.2-1.6c0.1-0.5,0.3-1,0.5-1.5
				c0.2-0.5,0.5-0.9,0.8-1.3c0.3-0.4,0.7-0.8,1.1-1.1c0.4-0.3,0.8-0.5,1.3-0.7c0.5-0.2,1-0.3,1.6-0.3c0.5,0,1,0.1,1.4,0.2
				c0.4,0.1,0.7,0.3,0.9,0.6c0.2,0.2,0.4,0.5,0.5,0.8C331.6,44,331.7,44.2,331.7,44.5z M328.5,43.4c-0.4,0-0.8,0.1-1.2,0.3
				c-0.4,0.2-0.7,0.4-1,0.7c-0.3,0.3-0.5,0.7-0.7,1.1c-0.2,0.4-0.4,0.9-0.5,1.4c1.1-0.1,1.9-0.3,2.5-0.4c0.6-0.2,1.1-0.3,1.5-0.5
				c0.3-0.2,0.6-0.4,0.7-0.6c0.1-0.2,0.2-0.5,0.2-0.7c0-0.1,0-0.3-0.1-0.4c-0.1-0.1-0.1-0.3-0.3-0.4c-0.1-0.1-0.3-0.2-0.5-0.3
				C329,43.5,328.8,43.4,328.5,43.4z"/>
		</g>
	</g>
	<g>
		<path class="st0" d="M34.1,32.3c-1.4-1.1-3.4-1.7-5.9-1.7h-10v13h10.3c2.5,0,4.4-0.6,5.7-1.7c1.3-1.1,2-2.7,2-4.8
			C36.2,35.1,35.5,33.5,34.1,32.3z"/>
		<path class="st0" d="M33,22.4c1.2-1,1.8-2.3,1.8-4c0-1.6-0.6-2.8-1.8-3.7c-1.2-0.9-2.8-1.4-4.8-1.4h-10v10.6h9.9
			C30.3,23.8,31.9,23.3,33,22.4z"/>
		<path class="st0" d="M0,0v57.1h95.7V0H0z M40.9,47.2c-2.6,2.2-6.1,3.3-10.4,3.3H7.8v-1.2c0.9-0.2,1.4-0.5,1.7-0.8
			c0.3-0.3,0.4-0.9,0.4-1.7V10.1c0-0.9-0.1-1.5-0.4-1.8C9.2,8,8.7,7.8,7.8,7.6V6.5h21.3c4.5,0,8,1,10.5,3c2.5,2,3.7,4.7,3.7,8.3
			c0,2.1-0.6,3.9-1.8,5.5c-1.2,1.6-3,2.8-5.4,3.8c2.9,0.9,5.1,2.3,6.5,4.2c1.5,1.9,2.2,4.3,2.2,7.1C44.8,42,43.5,44.9,40.9,47.2z
			 M87.9,28.7c-0.9,0.2-1.5,0.4-1.8,0.8c-0.3,0.4-0.5,1-0.5,1.8v10.8l1.3,1.2c-2.2,2.7-4.8,4.6-7.7,5.9c-2.9,1.3-6.2,1.9-9.8,1.9
			c-6.5,0-11.7-2.1-15.7-6.4c-4-4.3-6-9.8-6-16.6c0-6.3,2.1-11.6,6.3-15.8C58,8.1,63.2,6,69.4,6c3.3,0,6.5,0.8,9.7,2.3
			c3.2,1.5,4.8,2.3,5,2.3c0.2,0,0.5-0.1,0.8-0.2c0.3-0.2,0.6-0.4,1-0.7l0.8,0.5l-7.1,10.2l-0.9-0.5c0.2-0.3,0.3-0.6,0.4-0.9
			c0.1-0.3,0.2-0.5,0.2-0.7c0-1.2-1-2.4-3.1-3.6c-2.1-1.2-4.3-1.8-6.7-1.8c-4,0-7.2,1.4-9.7,4.2c-2.5,2.8-3.7,6.5-3.7,11
			c0,4.8,1.3,8.6,3.8,11.5c2.5,2.9,5.8,4.3,9.8,4.3c1.5,0,2.8-0.2,4.1-0.7c1.3-0.5,2.5-1.2,3.8-2.2v-6.8h-6.7
			c-0.9,0-1.5,0.1-1.9,0.4c-0.3,0.3-0.5,0.8-0.6,1.7h-1V25.5h1c0.1,0.7,0.4,1.2,0.8,1.5c0.4,0.3,1,0.4,1.9,0.4h17.2V28.7z"/>
	</g>
</g>
</svg>
