<?xml version="1.0" encoding="utf-8"?>
<!-- Generator: Adobe Illustrator 25.1.0, SVG Export Plug-In . SVG Version: 6.00 Build 0)  -->
<svg version="1.1" id="Layer_1" xmlns="http://www.w3.org/2000/svg" xmlns:xlink="http://www.w3.org/1999/xlink" x="0px" y="0px"
	 viewBox="0 0 32.3 32.3" style="enable-background:new 0 0 32.3 32.3;" xml:space="preserve">
<style type="text/css">
	.st0{fill:#FFFFFF;}
</style>
<g>
	<g>
		<path class="st0" d="M31.6,28l-6.7-6.7c1.6-2.3,2.4-4.9,2.4-7.7c0-1.8-0.4-3.6-1.1-5.3c-0.7-1.7-1.7-3.1-2.9-4.4
			c-1.2-1.2-2.7-2.2-4.4-2.9C17.3,0.4,15.5,0,13.7,0S10,0.4,8.3,1.1C6.7,1.8,5.2,2.8,4,4C2.8,5.2,1.8,6.7,1.1,8.3
			C0.4,10,0,11.8,0,13.7c0,1.8,0.4,3.6,1.1,5.3c0.7,1.7,1.7,3.1,2.9,4.4c1.2,1.2,2.7,2.2,4.4,2.9c1.7,0.7,3.5,1.1,5.3,1.1
			c2.8,0,5.4-0.8,7.7-2.4l6.7,6.6c0.5,0.5,1,0.7,1.7,0.7c0.7,0,1.3-0.2,1.8-0.7c0.5-0.5,0.7-1.1,0.7-1.8C32.3,29.1,32,28.5,31.6,28
			L31.6,28z M19.8,19.8c-1.7,1.7-3.7,2.6-6.1,2.6c-2.4,0-4.4-0.9-6.1-2.6C5.8,18.1,5,16,5,13.7s0.8-4.4,2.6-6.1
			C9.2,5.8,11.3,5,13.7,5c2.4,0,4.4,0.8,6.1,2.6c1.7,1.7,2.6,3.7,2.6,6.1S21.5,18.1,19.8,19.8L19.8,19.8z M19.8,19.8"/>
	</g>
</g>
</svg>
